/* XPM */
static char *White_Pixel_Dark_Box__1_1647207864[] = {
/* columns rows colors chars-per-pixel */
"64 64 4 1 ",
"  c #040707",
". c #030606",
"X c #0D1010",
"o c white",
/* pixels */
" ..  ..  ..  ..  ..  ..  ..  ..  ..  ..  ..  ..  ..  ..  ..  .. ",
".XX..XX..XX..XX..XX..XX..XX..XX..XX..XX..XX..XX..XX..XX..XX..XX.",
".XX..XX..XX..XX..XX..XX..XX..XX..XX..XX..XX..XX..XX..XX..XX..XX.",
" ..  ..  ..  ..  ..  ..  ..  ..  ..  ..  ..  ..  ..  ..  ..  .. ",
" ..  ..  ..  ..  ..  ..  ..  ..  ..  ..  ..  ..  ..  ..  ..  .. ",
".XX..XX..XX..XX..XX..XX..XX..XX..XX..XX..XX..XX..XX..XX..XX..XX.",
".XX..XX..XX..XX..XX..XX..XX..XX..XX..XX..XX..XX..XX..XX..XX..XX.",
" ..  ..  ..  ..  ..  ..  ..  ..  ..  ..  ..  ..  ..  ..  ..  .. ",
" ..  ..  ..  ..  ..  ..  ..  ..  ..  ..  ..  ..  ..  ..  ..  .. ",
".XX..XX..XX..XX..XX..XX..XX..XX..XX..XX..XX..XX..XX..XX..XX..XX.",
".XX..XX..XX..XX..XX..XX..XX..XX..XX..XX..XX..XX..XX..XX..XX..XX.",
" ..  ..  ..  ..  ..  ..  ..  ..  ..  ..  ..  ..  ..  ..  ..  .. ",
" ..  ..  ..  ..  ..  ..  ..  ..  ..  ..  ..  ..  ..  ..  ..  .. ",
".XX..XX..XX..XX..XX..XX..XX..XX..XX..XX..XX..XX..XX..XX..XX..XX.",
".XX..XX..XX..XX..XX..XX..XX..XX..XX..XX..XX..XX..XX..XX..XX..XX.",
" ..  ..  ..  ..  ..  ..  ..  ..  ..  ..  ..  ..  ..  ..  ..  .. ",
" ..  ..  ..  ..  ..  ..  ..  ..  ..  ..  ..  ..  ..  ..  ..  .. ",
".XX..XX..XX..XX..XX..XX..XX..XX..XX..XX..XX..XX..XX..XX..XX..XX.",
".XX..XX..XX..XX..XX..XX..XX..XX..XX..XX..XX..XX..XX..XX..XX..XX.",
" ..  ..  ..  ..  ..  ..  ..  ..  ..  ..  ..  ..  ..  ..  ..  .. ",
" ..  ..  ..  ..  ..  ..  ..  ..  ..  ..  ..  ..  ..  ..  ..  .. ",
".XX..XX..XX..XX..XX..XX..XX..XX..XX..XX..XX..XX..XX..XX..XX..XX.",
".XX..XX..XX..XX..XX..XX..XX..XX..XX..XX..XX..XX..XX..XX..XX..XX.",
" ..  ..  ..  ..  ..  ..  ..  ..  ..  ..  ..  ..  ..  ..  ..  .. ",
" ..  ..  ..  ..  ..  ..  ..  ..  ..  ..  ..  ..  ..  ..  ..  .. ",
".XX..XX..XX..XX..XX..XX..XX..XX..XX..XX..XX..XX..XX..XX..XX..XX.",
".XX..XX..XX..XX..XX..XX..XX..XX..XX..XX..XX..XX..XX..XX..XX..XX.",
" ..  ..  ..  ..  ..  ..  ..  ..  ..  ..  ..  ..  ..  ..  ..  .. ",
" ..  ..  ..  ..  ..  ..  ..  ..  ..  ..  ..  ..  ..  ..  ..  .. ",
".XX..XX..XX..XX..XX..XX..XX..XX..XX..XX..XX..XX..XX..XX..XX..XX.",
".XX..XX..XX..XX..XX..XX..XX..XX..XX..XX..XX..XX..XX..XX..XX..XX.",
" ..  ..  ..  ..  ..  ..  ..  ..  ..  ..  ..  ..  ..  ..  ..  .. ",
" ..  ..  ..  ..  ..  ..  ..  ..  ..  ..  ..  ..  ..  ..  ..  .. ",
".XX..XX..XX..XX..XX..XX..XX..XX..XX..XX..XX..XX..XX..XX..XX..XX.",
".XX..XX..XX..XX..XX..XX..XX..XX..XX..XX..XX..XX..XX..XX..XX..XX.",
" ..  ..  ..  ..  ..  ..  ..  ..  ..  ..  ..  ..  ..  ..  ..  .. ",
" ..  ..  ..  ..  ..  ..  ..  ..  ..  ..  ..  ..  ..  ..  ..  .. ",
".XX..XX..XX..XX..XX..XX..XX..XX..XX..XX..XX..XX..XX..XX..XX..XX.",
".XX..XX..XX..XX..XX..XX..XX..XX..XX..XX..XX..XX..XX..XX..XX..XX.",
" ..  ..  ..  ..  ..  ..  ..  ..  ..  ..  ..  ..  ..  ..  ..  .. ",
" ..  ..  ..  ..  ..  ..  ..  ..  ..  ..  ..  ..  ..  ..  ..  .. ",
".XX..XX..XX..XX..XX..XX..XX..XX..XX..XX..XX..XX..XX..XX..XX..XX.",
".XX..XX..XX..XX..XX..XX..XX..XX..XX..XX..XX..XX..XX..XX..XX..XX.",
" ..  ..  ..  ..  ..  ..  ..  ..  ..  ..  ..  ..  ..  ..  ..  .. ",
" ..  ..  ..  ..  ..  ..  ..  ..  ..  ..  ..  ..  ..  ..  ..  .. ",
".XX..XX..XX..XX..XX..XX..XX..XX..XX..XX..XX..XX..XX..XX..XX..XX.",
".XX..XX..XX..XX..XX..XX..XX..XX..XX..XX..XX..XX..XX..XX..XX..XX.",
" ..  ..  ..  ..  ..  ..  ..  ..  ..  ..  ..  ..  ..  ..  ..  .. ",
" ..  ..  ..  ..  ..  ..  ..  ..  ..  ..  ..  ..  ..  ..  ..  .. ",
".XX..XX..XX..XX..XX..XX..XX..XX..XX..XX..XX..XX..XX..XX..XX..XX.",
".XX..XX..XX..XX..XX..XX..XX..XX..XX..XX..XX..XX..XX..XX..XX..XX.",
" ..  ..  ..  ..  ..  ..  ..  ..  ..  ..  ..  ..  ..  ..  ..  .. ",
" ..  ..  ..  ..  ..  ..  ..  ..  ..  ..  ..  ..  ..  ..  ..  .. ",
".XX..XX..XX..XX..XX..XX..XX..XX..XX..XX..XX..XX..XX..XX..XX..XX.",
".XX..XX..XX..XX..XX..XX..XX..XX..XX..XX..XX..XX..XX..XX..XX..XX.",
" ..  ..  ..  ..  ..  ..  ..  ..  ..  ..  ..  ..  ..  ..  ..  .. ",
" ..  ..  ..  ..  ..  ..  ..  ..  ..  ..  ..  ..  ..  ..  ..  .. ",
".XX..XX..XX..XX..XX..XX..XX..XX..XX..XX..XX..XX..XX..XX..XX..XX.",
".XX..XX..XX..XX..XX..XX..XX..XX..XX..XX..XX..XX..XX..XX..XX..XX.",
" ..  ..  ..  ..  ..  ..  ..  ..  ..  ..  ..  ..  ..  ..  ..  .. ",
" ..  ..  ..  ..  ..  ..  ..  ..  ..  ..  ..  ..  ..  ..  ..  .. ",
".XX..XX..XX..XX..XX..XX..XX..XX..XX..XX..XX..XX..XX..XX..XX..XX.",
".XX..XX..XX..XX..XX..XX..XX..XX..XX..XX..XX..XX..XX..XX..XX..XX.",
" ..  ..  ..  ..  ..  ..  ..  ..  ..  ..  ..  ..  ..  ..  ..  .. "
};
