/* XPM */
static char *_45_8457021_cartoon_door_png_pixel_door_png_removebg_preview__1_1647206388[] = {
/* columns rows colors chars-per-pixel */
"64 64 144 2 ",
"   c None",
".  c #200F00",
"X  c #251301",
"o  c #2A1501",
"O  c #2E1903",
"+  c #25170A",
"@  c #2B1C0D",
"#  c #331B03",
"$  c #3A1E02",
"%  c #321E0B",
"&  c #291E14",
"*  c #3E2002",
"=  c #34210E",
"-  c #3A230D",
";  c #2D2014",
":  c #2D241C",
">  c #342313",
",  c #392613",
"<  c #3D2915",
"1  c #32261A",
"2  c #36291D",
"3  c #3B2B1B",
"4  c #2F2923",
"5  c #332C24",
"6  c #392E22",
"7  c #332E2A",
"8  c #3D3226",
"9  c #36312C",
"0  c #3A342C",
"q  c #363331",
"w  c #3A3632",
"e  c #3D3934",
"r  c #3E3C38",
"t  c #442302",
"y  c #4A2702",
"u  c #4E2902",
"i  c #44270A",
"p  c #44280B",
"a  c #4C2C0A",
"s  c #542C02",
"d  c #582F02",
"f  c #512E08",
"g  c #5C3104",
"h  c #56320C",
"j  c #5C340A",
"k  c #432C14",
"l  c #4C2F12",
"z  c #422F1C",
"x  c #563513",
"c  c #593713",
"v  c #5D3914",
"b  c #5E3C19",
"n  c #603406",
"m  c #63370B",
"M  c #66390A",
"N  c #6A3B0B",
"B  c #643D14",
"V  c #693F13",
"C  c #653F18",
"Z  c #453524",
"A  c #4E3B27",
"S  c #4A3D2E",
"D  c #583F25",
"F  c #433C35",
"G  c #483E33",
"H  c #413E3A",
"J  c #483F38",
"K  c #674016",
"L  c #6B4216",
"P  c #6B441B",
"I  c #6F481F",
"U  c #734516",
"Y  c #784816",
"T  c #774818",
"R  c #7B4B1A",
"E  c #57422C",
"W  c #59422B",
"Q  c #45423D",
"!  c #4C443D",
"~  c #594532",
"^  c #50473E",
"/  c #54493D",
"(  c #614121",
")  c #694522",
"_  c #6E4923",
"`  c #68472A",
"'  c #6A4A2C",
"]  c #664A33",
"[  c #654D39",
"{  c #6B553F",
"}  c #72573B",
"|  c #464541",
" . c #4A4641",
".. c #4C4A44",
"X. c #4F4E49",
"o. c #534B43",
"O. c #5A4F45",
"+. c #514E49",
"@. c #565047",
"#. c #5A5047",
"$. c #55534D",
"%. c #5C544C",
"&. c #5E584E",
"*. c #575550",
"=. c #595751",
"-. c #5D5A54",
";. c #5E565B",
":. c #5F5D58",
">. c #634E45",
",. c #655342",
"<. c #6A5643",
"1. c #60574D",
"2. c #62594F",
"3. c #695B4D",
"4. c #735E49",
"5. c #635C54",
"6. c #695F55",
"7. c #625F59",
"8. c #79634D",
"9. c #6B6157",
"0. c #65615B",
"q. c #6B645C",
"w. c #72665C",
"e. c #73685E",
"r. c #5F5A62",
"t. c #5C5B6A",
"y. c #5B5F74",
"u. c #5F667F",
"i. c #6A6660",
"p. c #6C6963",
"a. c #746B63",
"s. c #796E63",
"d. c #7E746A",
"f. c #696C79",
"g. c #7E7975",
"h. c #817162",
"j. c #81756A",
"k. c #83786D",
"l. c #857B71",
"z. c #827D79",
"x. c #86817D",
"c. c #93897E",
"v. c #5F6B8A",
"b. c #636D89",
/* pixels */
"                                                                                                                                ",
"                                                                                                                                ",
"                                                                                                                                ",
"                                                        $.*.          %.p.i.                                                    ",
"                                                  +.........+.H Q ..! 0 o.-.0.q.0.                                              ",
"                                              5.J Q .. .....+.| Q ....Q w 0 X.-.$.X...                                          ",
"                                          0.0.7.-.F  .......$.r Q ......X.Q 4 5 0 4 0 5.0.0.0.                                  ",
"                                      r H -.-.-.=.w Q ...... .q |  .X.X...r 5 0 w : ! 5.-.-.-.-.                                ",
"                                    ! F 9 Q -.0.+.5 4 q F H 9 5 0 0 e J J q 7 w q 7 =.-.*.-.-.-.-.                              ",
"                                F =.5.:.$.0 r ..H 1 # % % = ; # O O # ; > > > 5 7 F 7.-.-.-.*.-.5...                            ",
"                            +.F o.:.-.=.-.$.9 q 9 = # # o X X X o X X X . o o # > Z ..-.-.$.-.0.*.0 H r                         ",
"                            F 9 $.=.-.=.-.-.0 1 1 O X X o $ y u s s u t a * o X o # > F Q ..-.$.Q 7 w e                         ",
"                          Q w : Q 7.7.5.5.*.k O X X # t y s d s s s s y n d s y O X o % < Z Q Q w q 0 9                         ",
"                        Q e r w 9 Q *.;.*.H % X O y u s y s d s s s s u n d d d s * X X O % 2 9 H ....Q 5                       ",
"                        r w e w 7 w w e q ; X * s s s u u s d s s s s y n d d d d s t X X o # , | ......9 H                     ",
"                        r w 9 4 5 Q 7 % O X t s s s s s u s s d s s s u n d d d s s u t o X o % F ......w w r                   ",
"                      0.0.5.$.0 1 5 > o X * g d d s s u s s d d s s s y n g d d s s s s s o X O , ! ....w w e                   ",
"                    0.-.-.7.-.$.3 # O X # u g d s s s s u u d d d s u u n d d d s s u s d u X o # 6 Q Q 4 7 q                   ",
"                    5.-.-.-.X.| 9 % X # y s g d s s s u s s s s d s s u n d d s s s s s g d t X O # 1 5 0 ..&.                  ",
"                    -.-.7.0.$.Q 7 O X t u s g d s s s s u s s d d s u y n d d d s s s s d s s O o # # F =.:.0.-.                ",
"                    0 e ..$. .w 4 o # u u s g d s d s u u u d s d s s y g g d s s s s u g d d u X O # / -.0.0.*.                ",
"                  0.$.0 5 0 > = % X u s u u g d s s s s s s d d s s s y d g d d s s s u d s d s # X # / 0.-.X.e                 ",
"                i.-.-.Q 0 | 4 # X # d u u s g d s s s s u d d s s s s y d g d d s u s u d d d s y X # ^ -...r e -.              ",
"                5.-.-.F e Q 5 % X t d u u s j d s s s u u s d s d s s u s n s s s s s u d s d s s o + S =.X.e ..-.$.            ",
"                7.-...5 Q r 4 + o s s u u s j d s s s s u s d d s s s y s g d s s s u u d d d s d $ X z =.$.e $.-.|             ",
"                +.Q 0 5 w 9 ; X $ s d u u s g d s s s u u s d s d s s u s n d s s u u u d d d s s t X # F | 9 e $.              ",
"                ..Q 5 5 q 2 X . t d d u s s g d s s s s u s d d s s s u s n s s s s u u d d d u s y X O 1 r F 0 9               ",
"              +... .9 ..-.8 X k M M M M M N N M M M N M N N N N N N M M N N N N N N N V N N N N M g # o 3 ..Q 9 0               ",
"      s.l.j.  ....F F 0.-.0 + 8 a u k l s s s s d s d s d d d d s d d d d d d d g g g d d d d d d d $ X > 0 e $.7.              ",
"    5.j.6.5.  .. .5 ..5.:.G + 8 2 y p , i a s s s u u u u u u u u s u u s s s u u u u u s u u u s u $ o % 5 %.=.-.5.k.l.s.      ",
"    2.%.      +.Q 4 ..-.-.F + 6 & ; & 1 1 < u s s s s d s s s s s s u s s s u s s s s s s s s s s s t X # 0 -.-.$.%.9.6.w.&.    ",
"    @.! ! l.l.0 9 : F -.-.Q @ 8 , y i - i u s d d d d n n n n n n n n g g n g n g g d g d d d d s d t o , e Q ..Q  .d.6.! #.    ",
"      &.%.w.k.S & & : e | q & 6 p s k b U U Y R R R R R R R R R R R R R R R R T T U U U _ U V g u u * o 3 +...9 0 2.c.6.! O.    ",
"          2.w.1.: & & 5 e 7 + i u y s ) w.{ L L L L L L L L P L V V T V C T V C P V V ] f.5.C h $ # o o 3 *.+.4 Z w.6.o.2.      ",
"          %.9.5.9 : : | +.H + t g d g ] b.r.K P L L L K L L L L V C V V V C V T P U U ] y.7.C V y t # o % O.o.F @.6.1.          ",
"          ! 9.w. .Z & J =. .o t g s j P >.[ L L L L L L L L L L V T I V T T V C L L V P ` ` V V s u # = >.6.#.! 1.5.            ",
"          O.#.o.Q 5.G 4 +.! o t g s g L L L L P L L L L L L L L T V V C C C C T P V P L L L L _ } 4.<.O.>.1.1.o.^  .            ",
"          5.5.^ o.o.w.8 0 6 X t d d h L L L L L K K V L K K K K C C T C V T C V V V V L V P V 4.s.w.9.6.#.1.o.O.5.%.            ",
"          5.k.5.! ! &.o.& & O * g s d v v v v c c c x x x c x x c c x c x x B c c x c c c c c ~ 1.6.^ o.o.#.a.k.w.2.            ",
"            w.d.%.%.o.1.F 1 & * d d d c c v c v v c c v v v v B B B B c B B B B v B b v v v v [ #.#. .O.1.6.6.a.j.w.            ",
"            o.9.9.%.5.w.h.s.! i g s s v v v v v v v v v v v v v c B c B B c B B c B c B v v v ,.^ #.^ o.#.1.9.e.6.&.            ",
"              o.#.#.o.o.#.w.d.] b j s x v v v v v v v v v v v v B c B c b B v v B c c c c c x D ^ Q %./ ^ / O.Q F =.:.          ",
"                o.o.! o.@.o.2.w.e.h.W h v v v v c c c c c x x x x c x x b c x b b B c c v v b b ~ J G 3 - e 0 9 %.-.            ",
"                2.o.! ! o.o.o.2.2.6.{ ( q.5.K L K K K L K K L K V P V V V V V V V V V ` a.<.V b x a # o - ..Q 7 +...            ",
"                =.Q F #.o.o.s.o.O.1.6.] u.y.P L L L L L L I L L P C T V P V V T V P V [ b.r.V V s u # o ,  .| 5 5 9             ",
"                J 5 F J G ^ k.w.o.D f C [ ] L L L L L L L L U L C T C V V P U C U V U ) >.] U V d u $ o , 5 7 : F  .            ",
"                o.9 5 9 G J o.w.1.D c v L ' ) U P L L L L U L L T T V T T P P U P U V P P ' P V N N $ o = F $.e Q ..            ",
"                7.5.F ! =.! H o.O.A a z B C V V N V L L L L L L V V V C V V V V V V V V V P V V d d $ o - &.0.+.0 w             ",
"                0.-.$.5.:.-.9 0 / o.3 > , z a d d s s d d s s s s s d d s s s s d s d s s s s s s s $ o z q.:.=.e 4             ",
"                0.-.o.-.$.*.9 6 2 3 < ; > , y s s d d s s d d s s s s s d s d s s s s s d d d d d d $ o Z i.7.=.Q 9             ",
"                =.! 9 $.-.$.7 8 3 y y < s s d d s d d d d d d d g s d s s d d d d d d d d s g d d d $ o 3 -.-.7...e             ",
"                !  .F 0 ..Q 5 > i u i - t u u y t t t * t y u y a y t t * y u y t i t t y t t t t t # o % q r | 0 9             ",
"                7.7.0.*.| q 5 @ u d s u y s g s s y t $ $ u d s s u y t t y d s u y t t s s u u u y O O # 7 F F Q %.7.          ",
"                -.-.-.%.=.+.q & t d s u s g g d s s s u u s d d d s u s u u g s s s u u s d d u s u # o - O.-.=.-.7.-.          ",
"                -.-.=.=.=.=.r & t d s s s s g g s s u u u s d s d s s u y u d d s s u u d d s s s u # o Z :.5.i.i.0...          ",
"                7.-.7.-.-.+.e : a h s a a a h h f s a u u a s f s s u a y k d u a u a y a s a a f a % % S 7.7.:.*. .-.          ",
"                -.-.-.-.=. . .7.q.9.2.5.-.2.9.2.5.5.2.&.%.%.#.&.-.&.&.&.&.&.%.%.%.$.#.%.%.&.&.&.&.=.=.7.-.-.$.+.X.:.g.          ",
"                      *.-.-.i.a.i.p.q.i.p.p.p.p.q.i.0.0.0.7.7.7.0.0.i.p.p.p.p.p.p.p.i.q.i.0.i.q.i.q.0.7.-.p.z.g.g.              ",
"                                                    w H Q Q Q Q Q Q Q Q |  ..... ... . .|  ... .Q Q H H H 7.x.                  ",
"                                                                                                                                ",
"                                                                                                                                ",
"                                                                                                                                ",
"                                                                                                                                ",
"                                                                                                                                "
};
