/* XPM */
static char *fruit_removebg_preview__1_1647253308[] = {
/* columns rows colors chars-per-pixel */
"64 64 74 1 ",
"  c None",
". c #2D3F68",
"X c #2E4167",
"o c #2F4169",
"O c #33436E",
"+ c #364373",
"@ c #3A4476",
"# c #3C457A",
"$ c #424A77",
"% c #43467D",
"& c #43497B",
"* c #495079",
"= c #5F8B3B",
"- c #618D3C",
"; c #62913E",
": c #5C8958",
"> c #688856",
", c #6E995D",
"< c #67A242",
"1 c #6AA544",
"2 c #6CAA46",
"3 c #6EAD48",
"4 c #71A255",
"5 c #404781",
"6 c #464A83",
"7 c #4B4A84",
"8 c #4B4C8A",
"9 c #504B87",
"0 c #544D8B",
"q c #584D8E",
"w c #4D5089",
"e c #545384",
"r c #5A518F",
"t c #54598D",
"y c #4E4D91",
"u c #514F95",
"i c #534F98",
"p c #545196",
"a c #5D5191",
"s c #55519A",
"d c #5A529D",
"f c #615295",
"g c #60559F",
"h c #5F648F",
"j c #5C54A2",
"k c #6355A3",
"l c #6559A5",
"z c #6356A8",
"x c #6A57AB",
"c c #6E5BAB",
"v c #7758A9",
"b c #7B5AAE",
"n c #7E5BB0",
"m c #845DB4",
"M c #885EB7",
"N c #865EB8",
"B c #8A5FBA",
"V c #8C61BB",
"C c #916EB3",
"Z c #9161BE",
"A c #9168BF",
"S c #9572B8",
"D c #A07BBE",
"F c #8F61C0",
"G c #9463C2",
"H c #9A64C7",
"J c #966AC2",
"K c #9A6CC5",
"L c #9D66C9",
"P c #9C68C9",
"I c #A067CB",
"U c #A26BCC",
"Y c #A571CD",
"T c #B87BDC",
/* pixels */
"                                                                ",
"                                                                ",
"                                                                ",
"                                                                ",
"                                                                ",
"                                                                ",
"                      =                                         ",
"                     1=                  ;111                   ",
"                    1;<;                <<---1                  ",
"                    ;<21;              ;<    -2                 ",
"                     ;<122            ;1   2 -1                 ",
"                      --1123        ;12   1; -1                 ",
"                        ==;2222  ;232     1  1;                 ",
"                            ;23222        ;11-                  ",
"                               2           --                   ",
"                              ;2                                ",
"                              22                                ",
"                           KaD4>S&g                             ",
"                      $&9KZ0KS,hd7Vl@kv                         ",
"                     eKKKfv%V*:t7MUAwVKgl                       ",
"                    &AV0HK$@mm*7MLKaVK9%nc                      ",
"                   Y7V7gPP6y7mmmHF9MZ%umqbc                     ",
"                  TV9m7mJ9szs%#7MB7mZ%7Zm9n#                    ",
"                  Y0JIM76ikBZzu8%nk7mZVVm7m%                    ",
"                 $V$ZIImps9ZIm6%%7bg9Mm7%gGBk                   ",
"                K0m9MUK7#dBIK0MJJM0mm97dxZHM%+                  ",
"                rKYM0A9s8%ZG7kJ99JM7MZGKBLV7up                  ",
"               YVZfm%m%b7&ZH7b9mg7m%kHP77MB#u#p                 ",
"               79mZV%m7mZZZ7dM7mM7m#jB7du6m6u6+                 ",
"              $AVqHZ9bk7MIZ#kZz7mmm%kB9Md%Bd@p+                 ",
"              7VHHUZM0bg7MB%BIHk7#%kGHMm6kJj@u8+                ",
"             &VeZK7eJVqbd7m9MBaBBpimBm%#kN8js#77                ",
"             @v7m7jnrKm9m9ZH7kBUP7#7%%$uFFjjju@+                ",
"             O#kM%BGa0m%MmIZ#dHKqMJJKZM9nxjjs5yu+               ",
"             OpVm9mZqMm9MfGZ#@m9MUU99PIm6sji#8#5O               ",
"              &M9b0mmmqVUKIGs$m%ZY7pdqZB@ys#y@5+X               ",
"              @v7BM977BJ99KHd#m%GY7smZZd+ys+u+w6O               ",
"               &ukBBBZP0dd7md7M7MLM7%mg#8js+u@&+                ",
"               wu##kZZ7kVn&p#MPVqmZbd#@8jss@8y+                 ",
"               w.88.zm7nGqsu6VrFm%##u66dj5ss@5O                 ",
"                #i6+dxb8nns6nJ6nki88@++8ssjj6+                  ",
"                88@8djzd5@@8d6ij5jjjy86++yjjwO                  ",
"                 O8i5sdsyyyi@ijjdjjs@+yj8+6s@                   ",
"                 O7d66++#yji+i@+sjs@68#sj6+y                    ",
"                  @6+O+yi5ij#yj6@u#8ju5#sy+w                    ",
"                   O.56#ii5y8@ii+u+sj@+8sy+                     ",
"                     @66#iy#i8@+ys#ijsyy++                      ",
"                      +66#i+sjw6iju#usu@                        ",
"                      X+666@ddu@@686+O+                         ",
"                        OOO8w++66OOO                            ",
"                                                                ",
"                                                                ",
"                                                                ",
"                                                                ",
"                                                                ",
"                                                                ",
"                                                                ",
"                                                                ",
"                                                                ",
"                                                                ",
"                                                                ",
"                                                                ",
"                                                                ",
"                                                                "
};
