/* XPM */
static char *kaido1_removebg_preview__1_1647710328[] = {
/* columns rows colors chars-per-pixel */
"64 64 221 2 ",
"   c None",
".  c #1B0E16",
"X  c #1B0F18",
"o  c #1D1017",
"O  c #1E1219",
"+  c #1B191A",
"@  c #21151B",
"#  c #26191E",
"$  c #341A1F",
"%  c #2A1D22",
"&  c #231B2C",
"*  c #241925",
"=  c #251D32",
"-  c #271F38",
";  c #3B1E20",
":  c #2C2125",
">  c #2B272D",
",  c #332426",
"<  c #342629",
"1  c #3B2C2C",
"2  c #382628",
"3  c #2C243C",
"4  c #2C2937",
"5  c #332A3E",
"6  c #382838",
"7  c #333234",
"8  c #35343C",
"9  c #3E3C3D",
"0  c #3D3539",
"q  c #39362F",
"w  c #44322C",
"e  c #553A2C",
"r  c #482836",
"t  c #562D35",
"y  c #433332",
"u  c #4B3A36",
"i  c #42343D",
"p  c #4D3C39",
"a  c #473635",
"s  c #533E3A",
"d  c #583737",
"f  c #4C2826",
"g  c #6B342D",
"h  c #7C3B2D",
"j  c #763A2D",
"k  c #672E32",
"l  c #6B3536",
"z  c #743832",
"x  c #52402E",
"c  c #55423D",
"v  c #5A443F",
"b  c #5E4C38",
"n  c #59543D",
"m  c #49463F",
"M  c #724839",
"N  c #2B2544",
"B  c #2E2A45",
"V  c #2C274C",
"C  c #2D284E",
"Z  c #322C45",
"A  c #3D2B44",
"S  c #332C4D",
"D  c #362743",
"F  c #353344",
"G  c #3C3342",
"H  c #3B3D43",
"J  c #3B334E",
"K  c #2C2750",
"L  c #2D2850",
"P  c #322C53",
"I  c #382F53",
"U  c #36315A",
"Y  c #3A345B",
"T  c #3A3457",
"R  c #3E3861",
"E  c #412D46",
"W  c #422F48",
"Q  c #542C42",
"!  c #5C2D46",
"~  c #5F2F48",
"^  c #44334B",
"/  c #483747",
"(  c #573247",
")  c #4B3651",
"_  c #4A3956",
"`  c #533C58",
"'  c #63334C",
"]  c #413B63",
"[  c #3E4142",
"{  c #424544",
"}  c #434947",
"|  c #4B4D45",
" . c #464C4A",
".. c #4A4649",
"X. c #5B4641",
"o. c #5D4943",
"O. c #574947",
"+. c #545344",
"@. c #5A5846",
"#. c #584657",
"$. c #5B5758",
"%. c #4B4852",
"&. c #634D45",
"*. c #674846",
"=. c #784A4A",
"-. c #66514A",
";. c #6B544B",
":. c #685948",
">. c #76554D",
",. c #664856",
"<. c #665756",
"1. c #755C52",
"2. c #795F53",
"3. c #75595A",
"4. c #6B6443",
"5. c #696346",
"6. c #736D46",
"7. c #726748",
"8. c #797348",
"9. c #69625E",
"0. c #7C6256",
"q. c #7D645A",
"w. c #716359",
"e. c #5C4463",
"r. c #5C4C61",
"t. c #644B6C",
"y. c #634A69",
"u. c #685866",
"i. c #684E72",
"p. c #6D5174",
"a. c #73577B",
"s. c #75587C",
"d. c #765B6B",
"f. c #5E6165",
"g. c #6A6665",
"h. c #786B67",
"j. c #6E6A70",
"k. c #756A77",
"l. c #6E7176",
"z. c #777578",
"x. c #77746F",
"c. c #813F2D",
"v. c #823F31",
"b. c #84422C",
"n. c #8A452A",
"m. c #874536",
"M. c #924A36",
"N. c #9C553B",
"B. c #8C523D",
"V. c #A65D3B",
"C. c #B2663D",
"Z. c #8B4744",
"A. c #934C4A",
"S. c #9A5546",
"D. c #8F4E4D",
"F. c #A55B45",
"G. c #816357",
"H. c #82665A",
"J. c #85695B",
"K. c #8A6D5E",
"L. c #806F52",
"P. c #896E4F",
"I. c #A76648",
"U. c #B37A54",
"Y. c #AF704C",
"T. c #836A62",
"R. c #8B6F62",
"E. c #816762",
"W. c #8E7161",
"Q. c #8F7368",
"!. c #927464",
"~. c #977866",
"^. c #927568",
"/. c #9C7C6A",
"(. c #987968",
"). c #837C77",
"_. c #9F7575",
"`. c #A1796D",
"'. c #8F8656",
"]. c #84827B",
"[. c #89877C",
"{. c #A3826E",
"}. c #B28666",
"|. c #A68570",
" X c #A98772",
".X c #AD8A74",
"XX c #AA867E",
"oX c #B08D76",
"OX c #B28F78",
"+X c #7B5D85",
"@X c #775B80",
"#X c #7A7B81",
"$X c #777C89",
"%X c #796485",
"&X c #81628B",
"*X c #8A7B87",
"=X c #7E848F",
"-X c #888787",
";X c #928D87",
":X c #95948A",
">X c #8B8A95",
",X c #989899",
"<X c #A39A9B",
"1X c #B09891",
"2X c #A7A29B",
"3X c #9B9CA4",
"4X c #A49FA4",
"5X c #A7A7A9",
"6X c #B5B4AA",
"7X c #BAB8B6",
"8X c #ABA8AE",
"9X c #C3C3B7",
"0X c #BABAC1",
"qX c #C3BCC0",
"wX c #C3C3C4",
"eX c #CBCAC9",
"rX c #D4D4C8",
"tX c #D9DAD7",
"yX c #C9CAD1",
"uX c #EDEDED",
"iX c #E0E0D4",
/* pixels */
"                                                                                                                                ",
"                                                                                                                                ",
"                                                g.                          x.                                                  ",
"                                                ].                          ].                                                  ",
"                                              [.[.                            ;X                                                ",
"                                            [.:X                              :X[.                                              ",
"                                            :X[.    O O                       x.:X].                                            ",
"                                O         :X;X                              o   ;X:X          o                                 ",
"                              o o       :X:X9.      @     @     o O       O       :X:X        O                                 ",
"                            @ o o     x.2X;X:     o O     o o . o o O     O     O -X9Xx.  o O o @ O                             ",
"                              o o   o [.9Xg.+   O o o o o o @ @ @ o o o o O o o o 9.9X2X# X o O                                 ",
"                      o       O o o @ <XrXg.o o o . @ 1 : @ u m v # # 0 % o o o . $.9X2X: X o X o   +                           ",
"                      o o o o o o . o -XiX6X$.< 0 $.[.].: @ X.&.;.% O x.:Xg.a : 0 :XiX6X% . X * & o o                           ",
"                              5 N & X ..9XtXrX7X7X6X].0 o : v o.o.1 o < 9.5X7X6X9XiXiXz.O & 3 L I 5                             ",
"                          ] P P K & & @ +.).;X:Xg.a @ . O 1 v &.o.y , 1 @ 1 g.:X6X6Xx.: * N K K P P 3 O                         ",
"                        Y P K K K V - O @ o : 2 o @ o o % , < 1 , , 1 1 , w , @ , : o O & N K K K C 3                           ",
"                      ] U K K K K K & * V & < % # 2 < o : u w : 1 u s 1 , c u , u a # % 6 - D B C 6 C P R                       ",
"                      Y P L V N N V O > A i p 1 , p u : : 0.0.c v ;.H.o.1 2 c a c d ; k k e t t r d r V Y                       ",
"                    T K K C 8 y u 6 < y c v X.s y y 1 y , /./.v v K.oX/.-., f M j c.c.c.c.c.l h j k g t C U R                   ",
"                ] Y C C L B u X.X.c X.X.X.v v p 1 , c w , -.1.&.c -.0.M b.f $ h h g c.j z n.j g c.c.c.g D K U Y R               ",
"                  U C C K 8 u c v v v v -.;.-.c < 2 c a s v c s c c c M n.f ; j c.h n.v.m.m.M j h c.h g r V L U U               ",
"                  U P C G c v v c c b -.W./.;.v u , a &.&.&.&.s u &.>.P.B.; g M.n.z n.m.D.I.M m.v.k j h k 6 K U Y               ",
"                  Y C G v >.;.v c 1./.W.!..X{.K.J.0.p ~.{.{./.0.;./.}. X&.c }.U.U.Y.I.}.}.K.0.`.Y.M.n.c.k k t L P               ",
"                Y L B v q.|.0.X.J. XoXK.1.{./..XoX.Xu H.oX.X.XK.J.{..XK.: R..XoXXX(.R.{.K.v /.oXU.F.M.c.n.V.z D C B             ",
"                S C i H..X.X{.K.^..XoXW.a 1.^. X X1.u (.`.~.W.2.H./.{.H.% c W.`.{./.W.;.v o.{.oXC.I.A.l c.I.S.k V V             ",
"            R U K C X.{..X.X.X{.W..XoXW.p l W.R.X.c R.^.G.>.=.v &.!././.q.v w 1 &.J.-.G.o.p `.}.I.F.I.M.M.A.m.j B C N           ",
"              Y K V O.{..X X{. X X.XoX0.X.*.s a M G.>.*.c v v v &.&.&.v ;.J.(.q.y , 1.`.;.q.P.Y.C.F.A.F.V.A.M.g D K             ",
"              P K V a J..X~.1. X.X.X!.0.-.u d =.=.' *.2.J.0.K.J.0.~.K.J.W.-.K.{./.c , G.{.!.M Z.I.F.F.V.Z.N.V.k r K V           ",
"            R U K S a q..X{.v 0.(.J./ :.w 1.G.=.D.=.G.!.J.J.1.&.&.;.>.1.0.K.{. X^.~.y s /.1.H.d M.A.N.c.' _.1X).u.V C           ",
"              Y K G ;.K..XoXH.c v 5 N * s R.=.=.d *.!.^.>.;.0.K.W.(.J.J./.|./..XR.>.&., R..XH.3 D z c.h h.wXtXyX5XJ N           ",
"              Y C / (.(.oX{.-.c c Z 3 O o.R.=.=.&.d H.~.~.(.Q.2.;.J.{./.K.0.;.0.W.W.2.: ^.K.0 V B k z ' >X8XyXyX5X%XB N         ",
"            T P V p |..X~.&.-.G.v N = O B -.(.^.0.d u c o.-.X.O.+.O.o.@.c O.v v o.&.u # &.c D K N k V.`.3Xk.2X0Xl.z.T V         ",
"            U P i v /. X>.2.{.oXR.A = @ N ( ,.` / / ) %.j.=Xl.x.-X$Xj.#Xx.l.z.g.#.A 6 6 / p B K 6 M.F._.qX,XqX8X>X>X%.V         ",
"            Y S X.-.~..XW. XoXoX{.^ = @ 6 E / ) G ^ #Xz.z.5XwX3X3XwX8X5X3X,X8X7X>X#.W ^ E E N V r V.A.D.;X5X8X4X3X$XJ N         ",
"            P B -.H./. X{. X.XoXK.G W = 4 ) i.` _ z.5X=X-XyXiXeX7XtXeXwXtX>X3XtX8Xk.E W ) E 5 V r F.F.F.I.<X8X,X3Xl.B           ",
"            P B 1.8.K.q.L.'..X^.O.t.e.) ` p.#.` *XwX4X=X#X].,X;X9.;X).w.].j.l.j.j.u.W ) s.y.` B E Z.F.I.B.[.5X3X,X<.N N         ",
"        ] U L B +.'.q : 8.4.-.4.O.@Xi.y.i.) ) i.r.u.%.%X$.e u e w e d f q r.f.6 A A ^ ) t.+Xa.` K Q S.M b 8.7 m '.n 3           ",
"          P | 0 > { 8 7 [ > q n #.+Xi.y.) E i.y.) A 8 $X$XQ r r r r r r 2 u.=XE A ^ ) i._ e.+Xa.C G 6.n > 9 4 8 m 7 a           ",
"        Y U S F <.<.^.q.J.<.F 7 u.y.e.e.) y.s.p.@X` Q >X7X' Q Q Q t ~ ! Q *X7X#.^ e.) a.e.A ` t./ @.y { <.h.;.^.<.| 4           ",
"        S L K C E.(. X(.|.<.S _ &Xt.) W e.&Xs.s.<./ ,.eXiXd.~ ~ ~ ~ ' ' t *XwX<./ -.y.p.+X_ A A E #.J J ^..XK..X{.q.C V         ",
"        V K K C T.oX.X.X|./ K P i.+Xt.i.+Xp.` 0.:.Q ' <XtX8X' ' ~ Q ( ( p ,.7XqXr.:.<.#.a.s.e.r.a.@XP V ,. X X.X.X^.S V         ",
"      3 C C K S ^.oX.X.X X3.S K P t.&X&Xp.! t n 4.*.( 5XuX5X..../ 9 H } } ,XuXeX<.:.+.t ( a.&X&X@X_ K S <. X.X.X.X~.S N         ",
"        C P K S Q.oX.X.X.X.Xh.S C :.g.<./ Q c 8.6.+. .l.;X .} } [ 9 9 { [ f.,X$.@.6.8.@.i ( #.d.%.K I Q. X.X.X.XoX^.S N         ",
"      V C K K C T.OX.X.XoX.X|.) V O.6.6.m @.8.6.+. . . .} } } } } [ }  . . .[  . .@.6.4.| } m 4.5.C %. X X.X|..XoX^.S V         ",
"    V K K K K S R. X X/.{.{.^.3.K { 8.5.4.6.8.6.|  . . . . . .[ [ 8 [ [ } }  . . .| 8.5.5.+.4.8.o.S q.Q./.{.(..X|.^.S K N       ",
"    V B C K K J /.{.|.(././.H.^.P H 5.6.6.4.+.|  . . . . . . .[ B V F [ } [ }  . . .@.@.8.4.6.4.G I ^.0.(././. X(.^.^ V N       ",
"      V K L K ^ T./.|./.{..XJ.<.P C F | @.|  . . . . . . .[ [ B C K B [  . . . . . . . .+.5.| { C K ..H..X/./.|.{.q.J K V       ",
"      B K L L L P ^ $.^.3.T.#.C K K F  . . . . . . . . .[ } F K C K K Z }  . . . . . . .}  .} [ C K V #.E.T.W.q.<.P K K C V     ",
"      V K K K K L K K S L S K K L K F  . . . . . . . . . .F C K L L K C F  . . . . . . . . . .H C K K C C I S S S K C C K C     ",
"      N C C K K L L K K L L L L K K Z  . . . . . . . . .F C C K L L L K B H  . . . . . . . . .H C K K K K V K K K K P K K B     ",
"      N K P K K L K C K K K L L K K B H  . . . . . . .[ C C L L L L L L K B [  . . . . . . .} C K V C K C C K K K K K K C V     ",
"      V K K K K L C N B B B B C K K K F  . . . . . .[ C C L L K L L K K K K B [  . . . . . .[ B V 3 N V N B C K K P K K K V     ",
"      B N V K K C N           N B C V F [  . .}  .[ B K K K K K K L L L K K K B }  .} {  . .[ 4             N K P K K K C V     ",
"          V V C C N                 V B B 7 7 7 8 B C K K K K K L L L L K K L L S 8 > > 7                   3 B K K K K C       ",
"          N N C V                         + + + 4 C C C K K K K K K L L K K K B N : + + +                     N K K K K N       ",
"              N N                         + + + =   3 V C B K C C C C L K K B       + + +                     N B C B N         ",
"                                          + + +       N     N   B C V N B V         + + +                         V             ",
"                                          + + +                                       + +                                       ",
"                                          + +                                         + +                                       ",
"                                          + +                                         + +                                       ",
"                                          + +                                         + + +                                     ",
"                                        + + +                                         + + + +                                   ",
"                                    + + + +                                             + + + +                                 ",
"                                                                                                                                "
};
