/* XPM */
static char *kaido2_removebg_preview__1_1647710303[] = {
/* columns rows colors chars-per-pixel */
"64 64 208 2 ",
"   c None",
".  c #130D0F",
"X  c #150E11",
"o  c #130F1C",
"O  c #151213",
"+  c #191516",
"@  c #15111C",
"#  c #1B151C",
"$  c #1C1A1A",
"%  c #231C1C",
"&  c #261A1A",
"*  c #321E1C",
"=  c #121225",
"-  c #181424",
";  c #15142B",
":  c #19162C",
">  c #1D1B2C",
",  c #1A1C25",
"<  c #171532",
"1  c #191733",
"2  c #1B1935",
"3  c #1D1A3A",
"4  c #221C24",
"5  c #271D2A",
"6  c #211D35",
"7  c #211E3C",
"8  c #242323",
"9  c #2A2425",
"0  c #23242B",
"q  c #2B232C",
"w  c #25292D",
"e  c #2B2C2B",
"r  c #332623",
"t  c #342C2B",
"y  c #3C2D29",
"u  c #382825",
"i  c #2D312D",
"p  c #37362A",
"a  c #232334",
"s  c #2B2335",
"d  c #262932",
"f  c #2A2C33",
"g  c #24213D",
"h  c #3C2D31",
"j  c #392C39",
"k  c #2E3432",
"l  c #2F3835",
"z  c #343333",
"x  c #393534",
"c  c #333935",
"v  c #34373A",
"b  c #3B3439",
"n  c #353C3A",
"m  c #3A3C3C",
"M  c #46271E",
"N  c #432A25",
"B  c #472B2A",
"V  c #572E24",
"C  c #43322D",
"Z  c #473726",
"A  c #4D283A",
"S  c #4B2436",
"D  c #53273B",
"F  c #542B3D",
"G  c #58283F",
"H  c #55273B",
"J  c #4C3A34",
"K  c #43343B",
"L  c #493F3B",
"P  c #463835",
"I  c #533E36",
"U  c #593C37",
"Y  c #5D3225",
"T  c #653728",
"R  c #623F3A",
"E  c #39403E",
"W  c #46432E",
"Q  c #4B433B",
"!  c #494935",
"~  c #554139",
"^  c #5B453C",
"/  c #5E493E",
"(  c #5A4A34",
")  c #5A5535",
"_  c #58522F",
"`  c #72422D",
"'  c #614A3C",
"]  c #694936",
"[  c #655939",
"{  c #72513C",
"}  c #775B3C",
"|  c #754534",
" . c #676238",
".. c #736D3F",
"X. c #211F41",
"o. c #252244",
"O. c #282446",
"+. c #272449",
"@. c #29264B",
"#. c #2B284F",
"$. c #292842",
"%. c #3B2C45",
"&. c #3A3B41",
"*. c #383944",
"=. c #2C2951",
"-. c #2A2750",
";. c #5D2B43",
":. c #572C40",
">. c #483549",
",. c #483652",
"<. c #523C55",
"1. c #513C58",
"2. c #612D46",
"3. c #642E48",
"4. c #3D4442",
"5. c #424443",
"6. c #4A4644",
"7. c #414846",
"8. c #454D4B",
"9. c #4A4945",
"0. c #554B48",
"q. c #594946",
"w. c #48504E",
"e. c #5B4C51",
"r. c #574556",
"t. c #5B5C5C",
"y. c #5A5658",
"u. c #56534E",
"i. c #644D42",
"p. c #684741",
"a. c #6A5246",
"s. c #6D5549",
"d. c #655F49",
"f. c #695949",
"g. c #71574A",
"h. c #745A4C",
"j. c #795E4F",
"k. c #694E5C",
"l. c #655657",
"z. c #7A5F50",
"x. c #745B52",
"c. c #7F6640",
"v. c #6B6355",
"b. c #7E6253",
"n. c #756358",
"m. c #67614B",
"M. c #5B4262",
"N. c #5E4B64",
"B. c #575666",
"V. c #64496B",
"C. c #685B67",
"Z. c #705D60",
"A. c #705379",
"S. c #5F6462",
"D. c #626262",
"F. c #6B6C6D",
"G. c #696967",
"H. c #746B67",
"J. c #787365",
"K. c #797778",
"L. c #796F73",
"P. c #8F5333",
"I. c #89794C",
"U. c #826555",
"Y. c #856857",
"T. c #856959",
"R. c #8B6D5B",
"E. c #806759",
"W. c #8F705E",
"Q. c #91715F",
"!. c #946F58",
"~. c #A56D4A",
"^. c #947562",
"/. c #9B7B66",
"(. c #9F7D69",
"). c #807A71",
"_. c #82797A",
"`. c #866E79",
"'. c #A17F6A",
"]. c #7D807F",
"[. c #B3805D",
"{. c #86827B",
"}. c #9D8776",
"|. c #A5836D",
" X c #A9866F",
".X c #AA8770",
"XX c #AD8972",
"oX c #B18C74",
"OX c #8D7F84",
"+X c #838283",
"@X c #8A878B",
"#X c #938F8C",
"$X c #91918F",
"%X c #9C9C9C",
"&X c #969797",
"*X c #A39E9B",
"=X c #A6A59D",
"-X c #A4A6A6",
";X c #ACABA3",
":X c #ACACAC",
">X c #B2AEA8",
",X c #B3AFB0",
"<X c #B3B3B3",
"1X c #BFBFBE",
"2X c #B5B4AB",
"3X c #C5C5C4",
"4X c #CBCBCA",
"5X c #D3D3D2",
/* pixels */
"                                                                                                                                ",
"                                                                                                                                ",
"                                                                                                                                ",
"                                                                                                                                ",
"                                                    w                                                                           ",
"                                                  z w                                                                           ",
"                                                    f 8                                                                         ",
"                                                Q     x ~ 6.                                                                    ",
"                                        ^ q.~ I Q ! ^ i.a.l.                                                                    ",
"                                      I i.a.' i.i.Q f.j.f.).                                                                    ",
"                                      g.R.'.a.' b.u.^ T.{.J.C                                                                   ",
"                                      E.'. XU.U.^.q.m.|.>Xx.9                                                                   ",
"                                      |.oX'.h.i.i.u.d.@X=Xr + O O +     >X=X                                                    ",
"                                      |.oX'.R.a.q.Q s w.;X9.t $ + X +   ;X2X                                                    ",
"                                      ^..X'..XU.q.J : 2 C.G.b C C 6.z 6.=X%X        i.~                                         ",
"                                        Y.'. X/.i.I q > = . & J C y K.=X=X6.        j.'                                         ",
"                                      9 ^ ^. X.Xs.' J y # & r L I & & >.f - - -   ^ g./ y   / J                                 ",
"                                    t.6.y a.a.i.h.i.J J u u C C B r & o = ; < : > i.Q.E.y ' E.^                                 ",
"                                      t X & I I r C ~ ~ P B ] T T V * 5 ; < 4 : q i.T./ i.Y.j.~                                 ",
"                                    X X X & s.i.I y I ^ J ' T T T Y M u 4 5 N Z P j.b.a.h.^.j.~                                 ",
"                                    + + @ = s g.g.R.h.J ' |.~.P.T V M V N ] | U ^ b.XX Xb.i.R.s.~                               ",
"                                  x D.x @ ; j ^..XXXW.^ b.'..X[.~.` { Q.I { ] i.s.^ g./.|.i.g.j.s.^                             ",
"                                  +XC.8 o ; j (. Xh.J ^ i.i.j.(.XXU.g.R.^ b.R.^.XXR.h.b.|.R.b.Q.h.I                             ",
"                                    *.> < 1 s b.z.I ' j.g.g./ a.Q.b.J f.~ ^./.|.oXXXb.^.R.|.i.b.~                               ",
"                                  : < ; < ; 5 i.h.U ^ p./ s.R.R.Y.U.' / ^ h.] b.oXoX/.|.R.Q./ Y.i.                              ",
"                          : : : 1 1 < < < = 5 U R s.z.U.b.b.(. XQ.(.|.^ y j.h.m.n.^.Y.|.|.W.b.s.^                               ",
"                          : ; < < ; < ; = = a p.R b.i.i.' R. X^.U./.oXQ.^ C } } 9.n.m.b.^.b.g.Y.I                               ",
"                      1 ; ; 1 < < ; = = = = : I U i.z.E.v.b.^.h.' W.|.R.^.r M T I.i.0.d.P p i.i.                                ",
"                    < < ; < 1 ; ; = = = = = 1 j e.C.K.K.K.F.G.n.q.x.Q.|.^.C @ 9 c.P.P.|.h ; 6.q.                                ",
"                    : : < 1 < 1 ; ; = = @ : ,.C.@X-X&X:X%X&X@X@XF.r.<.a.b.r o = : B S b 6 < 6 6 :                               ",
"                  1 < ; < < ; 3 = = 8 p Z P y.+X%X,X-X<X-X>X-X%X&XK.M.>.K @ = = = ; ; < 1 3 1 < < : 1 1                         ",
"                7 3 < : 1 1 1 3 = 0 i W ) _ ) d.t.K.J.J.].K.{.].$X@XN.<.%.: = = = = = ; X.X.o.3 3 o.1 : 1 7                     ",
"                X.7 3 2 3 7 X.< w E l k c c ) [ r.#X' ( [ ' ' [ _.D.N.M.1.7 = = = = = = 1 o.o.3 @.o.7 1 2 3                     ",
"                3 o.+.+.+.o.2 0 E 8.E k i i i >.+XL.S S D D G U Z.F.<.V.M.>.: = = = = = = ; 3 o.@.7 3 o.X.o.g                   ",
"                6 o.+.=.=.$.> i E 8.4.l E e e K ,X`.F G G G ;.G k.,XV.V.V.1.<.%.@ = = = = = = 7 +.o.@.o.o.O.g 3                 ",
"            g 7 o.3 3 @.=.7 , k 4.8.7.k E c k 4.&Xl.G G 2.2.2.;.k.=XOXe.k.A.A.V.,.,.: = = = = ; 7 +.o.+.+.o.o.X.g               ",
"            $.O.@.o.o.@.=.7 , k 4.w.w.E n 7.c F.1XZ.2.2.3.2.;.2.D OX3Xl.( l.C.r.f.v.W % = = = = ; 6 +.+.+.+.o.o.o.@.            ",
"            #.o.O.O.-.-.X.: , k 4.w.8.E n 4.E G.:Xe.G 2.3.3.2.2.;.`.,X%Xm. ...[  . ._ p = ; = = = = 7 @.O.g X.o.g               ",
"            o.X.+.o.X.o.3 = > l 8.4.8.4.n 4.E %X5XK.A A F ;.:.A A D e.1X{.9.!  .E E k w = = = ; ; = ; 7 @.7 7 +.g g O.          ",
"            @.o.o.3 7 X., : w E 8.E E 4.4.4.n +X:Xt.4.v v m m c z z 6.:X<X<X7.m 4.4.l k > ; ; : 1 1 ; 1 @.@.o.@.g 7             ",
"          @.@.7 +.@.o.X.: 2 v 7.4.E l E 4.4.E ].4X$Xw.4.4.8.4.4.4.m n 7.&X4XS.8.7.E 4.4.d < 1 2 1 < 1 3 o.@.@.@.o.o.o.          ",
"            $.o.@.+.+.o.3 1 f 8.4.4.E 4.w.4.k %X5XK.&.4.v n 4.4.4.4.7.7.].3XS.4.4.7.8.8.f 1 3 1 3 3 1 2 3 o.o.+.@.@.            ",
"            o.g +.3 =.@.2 > f 4.8 E w.4.w.4.w B.&Xa = = ; = ; > d v m 4.7.F.u.E n E 4.w.f 1 1 1 3 1 1 1 1 7 @.+.@.o.            ",
"            g o.@.o.-.@.o.2 a z O $ i i 4.4.2 7 +.1 < ; < 1 < < ; : , 2 a k l i n 4.7.4.2 3 2 : 1 < 3 : > o.+.o.@.o.            ",
"                @.@.=.@.g   2 $ O $ $ 8 l 2 1 1 1 1 3 : < < 1 1 1 1 2 < 3 l l c k c &.a 3 3 1   1 1 1   $.@.7 o.@.@.g           ",
"                $.#.=.#.g       O $ $         1 1 1 1 1 < 2 2 3 1 1 2 2 3 *.E n 4.4.k 1 2 <               g o.X.@.#.            ",
"                g O.#.=.=.      + $ $             2 1 1 3 2 3 1 2 2 1 3 1 a E 4.E 4.f 3 1 1               @.@.O.#.@.g           ",
"                  g @.#.=.O.  O $ $               1 1 < 3 < 3 1 2 1 < < 1 @ O $ 0 t.*.                    O.o.O.@.O.6           ",
"                    @.$.@.    O + $                       : 1 2             O +   +X                        g @.o.o.            ",
"                              O + $                                       O + +                               O.o.g             ",
"                            O X O +                                       + + O                                                 ",
"                          O O + $ $                                       $ $ + O O +                                           ",
"                      $ $ + + + $ $                                       8 % + $ $ 9 e                                         ",
"                    $ % $ $ $ $ $ $                                       m z e 9 z x x                                         ",
"                    z x z t 8 $ 9 e                                                                                             ",
"                    z z z n b n z 5.                                                                                            ",
"                                                                                                                                ",
"                                                                                                                                ",
"                                                                                                                                ",
"                                                                                                                                ",
"                                                                                                                                ",
"                                                                                                                                ",
"                                                                                                                                ",
"                                                                                                                                "
};
