/* XPM */
static char *kk__1_1647710603[] = {
/* columns rows colors chars-per-pixel */
"64 64 252 2 ",
"   c None",
".  c #0D061C",
"X  c #180B16",
"o  c #1A0F16",
"O  c #280D1B",
"+  c #330C1F",
"@  c #29171A",
"#  c #34271A",
"$  c #150828",
"%  c #1A0835",
"&  c #171127",
"*  c #290D28",
"=  c #340E21",
"-  c #380F27",
";  c #281627",
":  c #351224",
">  c #3B1225",
",  c #3C132B",
"<  c #38182B",
"1  c #2C1637",
"2  c #3C1434",
"3  c #371738",
"4  c #2E0E37",
"5  c #3B262A",
"6  c #292839",
"7  c #372638",
"8  c #293A35",
"9  c #37363A",
"0  c #2C2B2C",
"q  c #1F2121",
"w  c #4F1718",
"e  c #651E19",
"r  c #42192C",
"t  c #4C1B3C",
"y  c #441936",
"u  c #531F3D",
"i  c #492638",
"p  c #53233C",
"a  c #56293B",
"s  c #493339",
"d  c #4C2C2A",
"f  c #673330",
"g  c #62281C",
"h  c #30443B",
"j  c #534B2F",
"k  c #6D5231",
"l  c #76653A",
"z  c #727031",
"x  c #78471B",
"c  c #2C1647",
"v  c #381946",
"b  c #3A1C52",
"n  c #270E43",
"m  c #3A2347",
"M  c #393746",
"N  c #392956",
"B  c #292F4A",
"V  c #303965",
"C  c #491A46",
"Z  c #541C47",
"A  c #471C57",
"S  c #541D57",
"D  c #621E50",
"F  c #4C234B",
"G  c #472748",
"H  c #582748",
"J  c #583546",
"K  c #4A2658",
"L  c #572A58",
"P  c #4A375B",
"I  c #573559",
"U  c #473445",
"Y  c #63274A",
"T  c #643849",
"R  c #682854",
"E  c #762C59",
"W  c #673956",
"Q  c #743956",
"!  c #77384A",
"~  c #4C2865",
"^  c #572964",
"/  c #493566",
"(  c #593766",
")  c #5A3176",
"_  c #652A67",
"`  c #673769",
"'  c #6A3876",
"]  c #732F6C",
"[  c #4C1D62",
"{  c #34544B",
"}  c #3A5854",
"|  c #35464B",
" . c #3D6356",
".. c #3A5170",
"X. c #3D6463",
"o. c #464757",
"O. c #47565B",
"+. c #53484B",
"@. c #754A48",
"#. c #684454",
"$. c #6F4E51",
"%. c #426B5C",
"&. c #756D49",
"*. c #59466B",
"=. c #4E4E6F",
"-. c #654666",
";. c #664A77",
":. c #72526C",
">. c #467564",
",. c #4F6E74",
"<. c #706B72",
"1. c #912B1B",
"2. c #AC371E",
"3. c #A73525",
"4. c #90322A",
"5. c #AB5C19",
"6. c #B86B1C",
"7. c #92552D",
"8. c #B0502E",
"9. c #906F37",
"0. c #AF6E2E",
"q. c #90531A",
"w. c #DA5901",
"e. c #DC6604",
"r. c #D26F10",
"t. c #E57706",
"y. c #E87509",
"u. c #CB7229",
"i. c #E35F01",
"p. c #87356A",
"a. c #813B50",
"s. c #8C544F",
"d. c #8D764E",
"f. c #AC704D",
"g. c #8F486B",
"h. c #886F71",
"j. c #B27564",
"k. c #B65944",
"l. c #D17254",
"z. c #D46C5C",
"x. c #4A826D",
"c. c #798031",
"v. c #B7963D",
"b. c #B6832B",
"n. c #949637",
"m. c #DA9009",
"M. c #E88608",
"N. c #EB9805",
"B. c #EC8F0D",
"V. c #EBAF0A",
"C. c #D98E22",
"Z. c #D9B02B",
"A. c #E8B423",
"S. c #E0A319",
"D. c #F4CF0F",
"F. c #F0E711",
"G. c #EBCD28",
"H. c #978C48",
"J. c #B89C44",
"K. c #AD904B",
"L. c #BBA347",
"P. c #B8A855",
"I. c #8F8D70",
"U. c #AC916F",
"Y. c #B6AB72",
"T. c #C6A948",
"R. c #C9B255",
"E. c #D3BA57",
"W. c #C8AF51",
"Q. c #CC9674",
"!. c #CBBA6C",
"~. c #E1915F",
"^. c #D6C668",
"/. c #DACC75",
"(. c #E5D77A",
"). c #E8D16C",
"_. c #EEE376",
"`. c #6D3F89",
"'. c #39568B",
"]. c #3E628E",
"[. c #445A88",
"{. c #515890",
"}. c #725384",
"|. c #486699",
" X c #536B93",
".X c #70728F",
"XX c #486AA5",
"oX c #5075AC",
"OX c #6A78A4",
"+X c #8A5384",
"@X c #847688",
"#X c #856A96",
"$X c #916D90",
"%X c #907BA7",
"&X c #A14E81",
"*X c #6B8A9A",
"=X c #758C96",
"-X c #7094B2",
";X c #78A8B6",
":X c #7AA9AD",
">X c #5A839B",
",X c #78AECC",
"<X c #5A8BC5",
"1X c #928C90",
"2X c #AC9589",
"3X c #B3AA8A",
"4X c #9094AB",
"5X c #A996B1",
"6X c #8FACB5",
"7X c #B1ACB3",
"8X c #96A997",
"9X c #C8B08A",
"0X c #E0B194",
"qX c #B4CAB5",
"wX c #B2C295",
"eX c #D2D28D",
"rX c #E4D48C",
"tX c #CDD9B0",
"yX c #E6DDAA",
"uX c #EDEAB3",
"iX c #E7E390",
"pX c #88B8C7",
"aX c #93BAD0",
"sX c #B4B2CB",
"dX c #A9A6CB",
"fX c #C9B8CF",
"gX c #96C5CC",
"hX c #8BC6D8",
"jX c #97C9D6",
"kX c #9AD6DA",
"lX c #91CAC8",
"zX c #A6D5DA",
"xX c #AFD3CD",
"cX c #B0E6DC",
"vX c #9BD9E4",
"bX c #94CEE3",
"nX c #A7DBE3",
"mX c #B4D5EB",
"MX c #9AE5EA",
"NX c #A8E7EA",
"BX c #B4E9E9",
"VX c #B5E9F3",
"CX c #AAF8F8",
"ZX c #BCFEFE",
"AX c #B5FBFC",
"SX c #A8EDF0",
"DX c #CCCCD6",
"FX c #D7D9E6",
"GX c #C3FBFD",
"HX c #D1FFFF",
"JX c #F1EFF5",
"KX c #CFE5D2",
/* pixels */
"                                                                                                                                ",
"                                                                                                                                ",
"                                                                                                                                ",
"                                                              + > >                                                             ",
"                                    D.F.G.                  i u y Z i r i               h.s 5 i J   r g         D.              ",
"                                      F.F.D.              < #.#.J #.H 2 i p a       :.h.:.y y s H W H p r     G.F.              ",
"                                      D.F.D.A.9.r r       : i J W s.j.P 2 D E i < #.&XQ T t G H ! s.@.T J J b.G.                ",
"                                      C.V.V.V.N.6.k H y < < < r t F j.U.v A ] Y i T g.E y H g.l.s.s.Y i J 0.D.A.                ",
"                                  = : f m.V.V.N.M.C.9.W F i i i 2 C s.9X-.K ~ ] F F R R C :.rX2XK C 4 * f V.D.                  ",
"                                  = , T C.t.t.V.N.N.C.@.L H J F 2 W Q.I.K K 7 ) v 7 K U W Y.uX:.4 S S r f V.V.                  ",
"                                  = x 0.t.y.t.V.t.N.B.k L G < F A j.9XI 3 v * * @ m 1 3 W 9XyXI 2 E p.Q 0.D.D.                  ",
"                                  - 0.M.t.y.N.V.y.t.M.6.s.L 1 A #.rXU.J s d 0 } 9 O ; K ~ 3XuX$.y D ] j.S.D.V.7.r               ",
"                                  r 0.M.i.M.M.t.i.t.m.e.r.7.7 v ! rXyX3XU.+.o.*X Xj s 3 C h.uX$XC F s.C.N.B.b.a > r             ",
"                                  < 7.M.w.r.C.B.e.e.t.e.w.r.5.# @ $.U.<.s q O. X,.s I.&.k U.uX3Xs.7.u.M.t.0.! ! f J J           ",
"                                r < T 0.t.w.6.9.r.r.V.m.r.w.e.z 1 * 6 V ..q 9 O.M X 7 &.9XuXyXP.r.e.t.t.C.8.8.u.l.f r           ",
"                              s i r H k r.e.6.+.H.S.F.F.D.V.V.L.|.'.'...o.j @ X o @ 9 1 5 +.f.r.w.w.w.M.B.y.M.0.g.H ,           ",
"                              s i d 0.f.r.i.0. X'.I.Z.D.F.F.F.P. XXX..9 v.E.z @ # j H.J B 7 5.i.w.w.w.V.V.t.5.5 H 2 + =         ",
"                              i r p 0.M.r.e.K.=.XXXX1XZ.F.F.F.P.U.d.5 9.J.T.v.k x 9.W.d.U a.8.u.e.e.m.m.t.e.d 7 L < * =         ",
"                              i i Y s.r.w.i.J.{.oXoX].K.Z.F.Z.L.T.z k L.v.T.Z.v.J.v.J.T.k e 1.3.u.B.V.r.w.5.@ o v 2 : +         ",
"                              a a t ^ k.e.i.f.oXXXoXXXI.Z.F.Z.L.L.k 9.T.L.K.n.v.E.T.K.J.7.w 1.2.3.m.V.N.e.5.U 1 ; G , :         ",
"                              u H y A @.r.u.<.|.XXXXXX<.G.F.G.Z.T.l 9.W.E.T.T.P.^.^.K.v.8.g e 2.3.u.N.B.y.5.; K 7 F - +         ",
"                            > H W J Z _ @.<.'. X-X;X;X6XS.F.F.).^.H.j !.rX_._._._.rX!.R.~.7.w 2.1.8.M.N.M.x 1 ~ K v - +         ",
"                            - H Y J F G V '.|.hXNXlXkXDXZ.N.F.rXrXP.# U.iX/.!.P.H.d.d.P.(.d.f u.3.8.A.B.y.w * K A C , * +       ",
"                            : Z H F ; & ].'.,XGXBXlXzXtXG.N.C.U.Y.l @ K.P.l 7.k d.J.P.W.L.k &.).^.!.^.l.8.1.X 1 [ v r =         ",
"                            : H I ; * B -XXXhXAXCXkXNXtXG.G.K.=X*Xq j K.s.@.9.H.R.!.R.T.J.z d H.^.Y.=X4X8.1.w X b [ Z >         ",
"                            : p R K v c ..|.hXCXCXCXBXwX^.KX6X$.7 : #.d.I.K.J.L.E.E.W.v.v.K.j d I.*XpXDXl.2.1.O X m F ,         ",
"                            * - v b % B N =.hXZXAXCXNX6XcXSX:X; ; $.h.3XiX(.E.E.E././.^.E.E.L.k 6 *XKX0Xl.k.3.w o G I r         ",
"                            > - 1 b $ V V =.|.-XlXMX-XhXCX=X6 @ @.s.4XcXtXrXrX/.!./.rX(.(.(.(.wXo.9 Q.z.z.l.8.g X v C ,         ",
"                            > 2 G $.& % B 6 q z I. .>XMX;X6 ; <.=Xh.<.1XxXwXP.L.v.L.E.R.T.^.iXqX6X7 f z.z.l.g.r X 7 L r         ",
"                          + = , N c.q . v B 6 j # o ,.MX{ o <.vXkXgXxX1X6XKX_.E.T.^.^.^.R.^.iXzXzX$.* f.z.+X=XM X 3 Z p         ",
"                          + = t G q B & N oX,X..h z j x.& O.zXNX6X6XjXzX6X8X_./.!./.eXrX(.rXtXcX6X4.= r k.h.OX{.O 3 3 y r       ",
"                y p p     + , #.j B '.% N 6XBXpXh # o o o O..X*./ <.=X4X6X4X8X1X4XU.1X1XY.!.7X6X| : - O 8.2X5X=X*.m 4 r , +     ",
"              r u Z H p y u Z $.+.B '...'.dXDXOX& X X * * S ~ I 1XdXFXDXsXFXxXsXDX5X6X7X7X7X4X<.1 & w O f Q.DXsXOXK 3 r r =     ",
"            i i u t H H a p.g.E L } ,XbX,XdXsXoXB X 3 A A K A +XFXFXJXJXFXJXJXJXJXDXFXJXfXFXFXDXP 4 f g 8.z.2XaX<X=.G < >       ",
"          Q i C Z G F F R E p.R R I.NXNXhXbXmX%Xj O A ^ A C A .X1Xh.7X7X4XDX5X8X1Xh.7X7X1XJXDXsX*.v f 8.~.l.9.I. X&.$.3 >       ",
"        $.R G I ,.=X*X<.P ~ K K A OXmXGXnXbXsXdX3 1 ' ^ K K G v < < s .X<.U i p J d s s s h.1XU ~ v d L.k # z n.@ c.&.#.,       ",
"      g.H L O.:XxXxXcXBXkX<.M K [ #XFXbXpXhX-X5XK _ ' ) ' ^ K K 3 F ` h.:.` ] _ ] L R F L I .X3 A b 0 H.j q 9 +.9 9 j $.2       ",
"      #.y I *X<.<.<.U.Y.xXBXpXo.( fXmXmXbXhX4XdX;.}._ ^ ^ ( ` ^ H L ' 5X}.' ' ` ;.L ' _ R L <.3 v K m M O.>X;XlX*X..^ t =       ",
"      J t o.P [ b b K ( Y.wXBXNXOXdXdXmXhXpX4XsX`.`.^ A ' ( ( I ` ` +X5X( ` ` L ' R ` ` L I @X7 3 ~ K *.6XCXZXAXCX-X] i O       ",
"      i C P b A v y 4 b ( H.eXBXVXFXFX-XN ) %X%X[ ^ ~ ` ' $.J _ ` ' :.4XI ^ ` W L L ` I F P @XG 3 L L ' 4XbXNXAXCXhX` p         ",
"    i < 3 I L D a p r 2 2 W Y.iXxXmXFX{.% / sX}.^ ^ ' ;.J z I ` ` ` :.7XI ( ' ` I L ` I L I 1X` U s K ~ .XbXGXZXZXkX` H         ",
"    i , t g.p.Q a < > - r 3 #.!.rXeXwX| $ ;.5X` L / I j z &.J I L I 1XsXI K L L F F ( R L o.4X#.T k s K 4XHXZXAXAXnX-.i         ",
"      > y E p.:.        = - 4 #.Y.rX!.5 $ P W $.&.z z n.z 9 9 9 M M 1XDXO.6 M 7 7 7 G U U -.DX-.G k l 9 =XGXCXCXAXnX;.p         ",
"        s p a             = > y S -.s.6 $ $ c ;.c.n.z &.j h h  . .{ { O.| { { h 8 h 8 |  .>.<.M 0 h z k *XbX-XSXZXNX}.Y         ",
"                          : ; < t A P & . $ c ;.( *.M h h 8 8 >.{ { { {  .x.>.{ %. .{  .>.>.%.| 8 6 M *.aXaXoXvXAX6XL t         ",
"                            : i p 4 c 1 $ % N *.K K 9 8 8 8 | %. . .X.>.>.x.O.} x.>.{ } } ..X...O.} 6 ~ %X-X,XkX%X] Y r         ",
"                              5 p 4 v m N c b ) ^ L } -X;XXX'...X.>.>.X. .%.K ) } } ].].].oX].-XzX,X../ `.[ }.^ L Y i           ",
"                              5 i 4 m v @X5X~ / ( A OXVXBXpXhX;X|.,.X. . .U n b B ].<XoX,XaX,XjXBXkXoX/ [ ] ] Z a i             ",
"                              i H 4 b c K DX#X( ( ~ }.aXNXNXNXjXoXoX[.} ` Z % 4 V XX<X,XBXBXmXBXBXzX>X( E g.p.p i               ",
"                              i R ] $XG % ;.5X{.;.A p.}.jXSXNXMX<X{.{.] E p.y * n ) XXbXBXBXBXzXgXOXP F $.:.                    ",
"                              F $XfX%X4 . * ;.;.( L S D #XNXSXSX X~ ] E Q p.p - $ b  XnXVXkX=X*.I H y y i                       ",
"                              C fX5X^ c . $ n ( ;._ C 2 *.NXZXvX=.C E Y J W H , * / |.gXSX;XK 4 t E i *                         ",
"                              2 +XfX$X4 . $ % N }.( t y ;.VXZXjX~ 4 D Z i #.W t 3 ..|.-XMX:XJ 2 Z p.T =                         ",
"                                S fXfXA . $ % c .X;.F Z .XVXVXpXN 2 E u r #.$.u 4 G [.,X6X6X*.3 u $.-.t r p W                   ",
"                                C 5XfXK . . % c #X}.b ~ aXZXSX;XA y Y r < s J p % v |.zX7XqX*Xc 2 W 1XE Z R #.Q H >             ",
"                                C dXJX( $ . % n %X$X' 6XxXzXZX-Xb 2 y + + O < , 4 b  XjXU.9XgX*.v ;.!.h.L ` h.1XR y =           ",
"                                2 #XJX5X% . % n }..X6XBXtXsXVX-X_ C > +   + + = 2 [ OXkXU.Q.gXaX.X1X~.Q..XOX9X9Xh.Z ,           ",
"                                - Z $XfXG $ $ % b .XNXaXQ.qXbXoX+XZ =       + = C K oXNXj.~.*X,XkX3Xs.j.=X'.-.( s.J t i         ",
"                                  r A +XI . . $ n / }.=.j.h.{.*.E u +       + = y Y ] .Xf.l.*.( .X<./ @.s./ N 4 G p 2           ",
"                                  + , Z m & $ % c m 3 m s.I v t t -           > y H E ] g.f.F v v K _ W Q H - - > - +           ",
"                                    - - y G m m G y * * i 2 -                   t t a W Q J 2 , y Q &Xh.:.J r > = +             ",
"                                      = = > - , >   + = = =                               , : r p g.$X                          ",
"                                                                                                                                ",
"                                                                                                                                "
};
