/* XPM */
static char *PngItem_5133234_removebg_preview__1_1647205878[] = {
/* columns rows colors chars-per-pixel */
"64 64 241 2 ",
"   c None",
".  c #010101",
"X  c #090604",
"o  c #0C0905",
"O  c #0B0B0A",
"+  c #060708",
"@  c #110E09",
"#  c #150A07",
"$  c #13110D",
"%  c #1C170D",
"&  c #131413",
"*  c #1C1C1C",
"=  c #1C1A14",
"-  c #0E1010",
";  c #3B0C06",
":  c #22190D",
">  c #221D14",
",  c #2B1F11",
"<  c #220F0C",
"1  c #1F201F",
"2  c #2B2213",
"3  c #25221C",
"4  c #2A251B",
"5  c #262215",
"6  c #322513",
"7  c #3B2D17",
"8  c #3A341E",
"9  c #1F2121",
"0  c #242424",
"q  c #2C2C2B",
"w  c #292825",
"e  c #322E26",
"r  c #393328",
"t  c #333432",
"y  c #3C3C3B",
"u  c #3A3835",
"i  c #2F302F",
"p  c #4E100F",
"a  c #4A361A",
"s  c #4D391D",
"d  c #42361C",
"f  c #533D1E",
"g  c #53341E",
"h  c #4A2E1A",
"j  c #453C24",
"k  c #443C2C",
"l  c #423C32",
"z  c #7A2B1D",
"x  c #58401E",
"c  c #4C4226",
"v  c #5D4420",
"b  c #554A28",
"n  c #4B4338",
"m  c #584935",
"M  c #5C522E",
"N  c #694824",
"B  c #685228",
"V  c #77572A",
"C  c #644C33",
"Z  c #6A5834",
"A  c #775533",
"S  c #734C29",
"D  c #7A622C",
"F  c #776634",
"G  c #6E6337",
"H  c #474746",
"J  c #595145",
"K  c #5A5956",
"L  c #514D46",
"P  c #675A47",
"I  c #6A5F4F",
"U  c #786648",
"Y  c #7A6955",
"T  c #776A4F",
"R  c #696868",
"E  c #7B7B79",
"W  c #726F6B",
"Q  c #990901",
"!  c #8C0A03",
"~  c #AC0C00",
"^  c #A81606",
"/  c #B31000",
"(  c #BC1301",
")  c #BA1A04",
"_  c #B30F00",
"`  c #972410",
"'  c #A62713",
"]  c #903024",
"[  c #C41500",
"{  c #CC1700",
"}  c #CE1900",
"|  c #D21800",
" . c #D01600",
".. c #CF301C",
"X. c #86592E",
"o. c #875B36",
"O. c #964532",
"+. c #86642A",
"@. c #936D2D",
"#. c #9D732D",
"$. c #83673C",
"%. c #986736",
"&. c #997A37",
"*. c #A6792D",
"=. c #AB7B2E",
"-. c #A1762D",
";. c #A36E39",
":. c #AB7637",
">. c #B9773B",
",. c #C67C3B",
"<. c #975449",
"1. c #856A49",
"2. c #857747",
"3. c #997748",
"4. c #897555",
"5. c #977C58",
"6. c #92684F",
"7. c #AA7947",
"8. c #BB7D47",
"9. c #A27B51",
"0. c #867971",
"q. c #A6736B",
"w. c #A26B64",
"e. c #B58A39",
"r. c #A7863C",
"t. c #97803F",
"y. c #C9903E",
"u. c #9C8542",
"i. c #9B835B",
"p. c #B69848",
"a. c #A6865B",
"s. c #B88A58",
"d. c #BA915E",
"f. c #AC8F44",
"g. c #9A8563",
"h. c #978A76",
"j. c #A88B65",
"k. c #B58E61",
"l. c #AA916A",
"z. c #B2946B",
"x. c #BD9A6C",
"c. c #B79566",
"v. c #AA9774",
"b. c #B79A74",
"n. c #BEA27B",
"m. c #CD8748",
"M. c #D48A49",
"N. c #CA925A",
"B. c #D9975A",
"V. c #C8944C",
"C. c #E49C5C",
"Z. c #E29657",
"A. c #CAA64D",
"S. c #DAAC4B",
"D. c #D4A649",
"F. c #C8A750",
"G. c #D4AC50",
"H. c #D8AE50",
"J. c #DDB351",
"K. c #E5B44E",
"L. c #E3B652",
"P. c #EEBA53",
"I. c #E9B852",
"U. c #F1BC54",
"Y. c #C39B6C",
"T. c #CB9C6C",
"R. c #C59764",
"E. c #D89C61",
"W. c #C39E71",
"Q. c #C18E63",
"!. c #DBA36B",
"~. c #D8A269",
"^. c #CCA374",
"/. c #C8A579",
"(. c #D6A975",
"). c #D4AA7A",
"_. c #DCAE7B",
"`. c #D9A773",
"'. c #DDB07D",
"]. c #CDA26E",
"[. c #ECA564",
"{. c #EEAD6C",
"}. c #E4A466",
"|. c #E4AB73",
" X c #ECAF71",
".X c #E1AF7A",
"XX c #EEB173",
"oX c #E4B37D",
"OX c #EBB57D",
"+X c #F2B77D",
"@X c #F5B97E",
"#X c #F3B575",
"$X c #EFB06F",
"%X c #938F87",
"&X c #A49B90",
"*X c #BCA588",
"=X c #B6AB98",
"-X c #AAAAAA",
";X c #B6AEA3",
":X c #B5B6B5",
">X c #B9B6AE",
",X c #C8AB87",
"<X c #CCB18F",
"1X c #D8B488",
"2X c #C2AC93",
"3X c #CBB494",
"4X c #C7B499",
"5X c #D9B997",
"6X c #D6AE81",
"7X c #ECB681",
"8X c #EDB984",
"9X c #EDBC89",
"0X c #E4B685",
"qX c #F5B980",
"wX c #F8BC82",
"eX c #EBBE91",
"rX c #CABBA4",
"tX c #C4B9A7",
"yX c #CABCAD",
"uX c #EEC496",
"iX c #CBC0AE",
"pX c #D9C5AC",
"aX c #CBC2B4",
"sX c #CAC5BA",
"dX c #D1CABE",
"fX c #EACAA8",
"gX c #D1CDC3",
"hX c #D7D3CC",
"jX c #D4D5D4",
"kX c #DBDCDB",
"lX c #DAD9D4",
"zX c #C7C8C7",
"xX c #DFE0DF",
"cX c #EBE3D6",
"vX c #ECEDEC",
"bX c #E7E6E3",
"nX c #F4EFE6",
"mX c #F5F5F5",
"MX c #FEFEFE",
"NX c #F7F8F8",
"BX c #EFF1F1",
/* pixels */
"                                                                            0                                                   ",
"                                                    O                     q 1                                                   ",
"                                                  + +                 q t * +                                                   ",
"                                        O +     + . X             q t q & . +                                                   ",
"                                      1 + +   + . .           w 0 0 & + . .                       w *                           ",
"                                  q q O .     . . .       * * O + . . . . +                 q q 0 & O                           ",
"                                0 t O . . + . . . . O & O + . . . . . . +     0 0 0 0 w w * & O . +                             ",
"                              w u 0 . . . . . . . . . . . . . . . . . . . . . . + . . . . . . . .                               ",
"                              t i + . . . . . . . . . . . . . . . . . . . . . . . . . . . . . +                                 ",
"                            i y * . . . . . . . . . . . . . . . . . . . . . . . . . . . . . . . . . + +                         ",
"                            t u O . . . . . . . . . . . . . . . . . . . . . . . . . . . . . . . . . . . . . . +                 ",
"                          0 y 0 . . . . . . . . . . . . . . . . . . . . . . . . . . . . . . . . . . . . . . . . . . + +         ",
"                        0 q * . . . . . . . + O . . . . . . . . . . . . . . . . . . . . . . . . . . . . . . . . . . . + O       ",
"                  + + O + . . . . . . . . . O * . . . . . . . . . . . . . . . . . . . . . . . . . . . . . .                     ",
"          + X . . . . . . . . . . . . . . . X q + . . . . . . . . . . . . . . . . . . . . . . . . . . . . . .                   ",
"              + . + & * . . . . . . . . . . @ i & . . O + . . . . . . . . . . . . . . . . . . . . . . . . . . . X               ",
"                  i q O . . . . . . . . . @ X.m 9 . . r w . . . . . . . . . . . . . . . . . . . . . . . . . . . . . +           ",
"                t q O . . . . . . . . . . S y.%.i X . d m & . . . . . X + . . . . . . . . . . . . . . . . . . . . . . . . +     ",
"              t q + . . . . . . . . . . g ,.M.,.m = . 6 %.t O . . . . % v . . . . . . . . . . . . . . . . . . +         + . +   ",
"            q t O . . . . . . . . . . : 8.C.$XM.%.e + @ ;.C 0 . . . . # ;.j . . . . . . . . . . . . . . . . . .                 ",
"          w t - . . . . . . . . . . + A C.qXqX}.,.C & . 1.7.u & . . . X %.>., . . . . . . . . . . . . . . . . . .               ",
"        0 q & . . . . . . . . . . . 6 M.+XqXqXqXC.:.r + f E.A i O . . . $.M.%.o . . . . . . . . . . . . . . . . . +             ",
"      & & O * * . . . . . . . . . . o.XXqXqXqXqX+XB.o.* = T.N.m w . . . U |.m.N . . . + X . . . . . . . . . . . . .             ",
"    + +   * u & . . . . . . . . . 2 E.qXqXqXqXqXqXqXB.C O Y qXs.u * . . m qX}.>., . . @ r . . . . . . . . . . . . . +           ",
"          q q . . . . . . . . . . A #X@XqXqXqXqXqXqX+XT.k > _.qX5.t O . e oX@X}.X.. . . V % . . . . . . . . . . . . .           ",
"          i & . . . . . . o 4 . o s.qXqXqXqX+XqXqXqX@X@Xb.> U wX7X4.q . $ ^.wX@XB.h . . A N . . . . . . . . . . . . . .         ",
"        w 9 . . . . . . . : V . , |.qXqXqXqXqXqXqXqXqXqXqX9.e T.wX.XI * . a.wX@X@X9.X . Z 7.o . . . . . . . . . . + . . +       ",
"        w + . . . . . . . h 7.@ m @XqXqX@XqXqXqXqXqXqX@X@X@X5.P OXqX(.J O P wX@X@XOXk . J !.7 . . . . . . . . . . +     .       ",
"      w O . . . . . . . . N E.k U @XqXqXqXqX@XqXqX@XqXqX+XqXqXq.l.qXwXT.l e .XwXqXwXa.. n qXA . . . . . . . . . . .             ",
"    & O . . . . . . . . . X.$X5.6.oX/.+XqXqXqXqXqXqXqXqXqXqXqXqX^.).qXqXW.l j.wXqX@X.X4 m wXd.O . . . . . . . . . +             ",
"  O . .     + . . . . . . %.@X.Xl.@X)./.7X@X@XqXqXqX@XqXqXqXqX+XqX7XqXqXwXc.4.OX@XoX/.P U qX_.4 . . . . . . . . . . X           ",
"            + . . . . . X 7.@X@XOX@X+X).b.oXqXqXqXqXqXqXqXqXqXqXqXqXqXqXqXqX(._.^./.oX^.a.@XqXc . . . . . . . . . . .           ",
"            . . . . . . o 7.@XqXqXoX<X4X>X;X,X0XqXqX@X@X@XqXqXqXqXqX@X@XwXqX^.5.%X4X3X,X).qXwXU . . . . . . . . + . . X         ",
"          + . . . . . @ $ 7.@X@XoXtXvXMXMXMXbXyX*X`.7XOX^.OXqXqX(.).@XOX`.j.&XkXmXNXNXvXaX,XwX4.. + . . . . . .     . +         ",
"          . . . . . . > A 7.@XOXtXmXMXMXMXNXMXMXgX5.s.N.c.qXqXqXOXz.Y.s.7.;XNXMXBXMXMXMXMXsX6Xi.. n O . . . X . +               ",
"        + . . + @ . . $ 7.B.@X'.hXMXMXMX-XH %XNXMX*X,.>.m.+X@XqXqX`.8.,.a.vXMX-Xu %XNXMXMXmX3Xa.> g.$ . . . j d .               ",
"            . m W.m O + 1.$XwX0XbXMXMXMXR . y mXMXfX}.B.m.E.qX@XqXqX XM.Q.mXMXW . y BXMXMXNXuXj.T Y.o $ U r g ;.O               ",
"            + 4.XX7.J O m |.qX@XcXMXMXMXbX-XjXMXMXfXqXqXOXY._.wXqXqXqX+X}.nXMXvX:XlXMXMXMXnXuX(.OXk.* i.7XU p <.$               ",
"            . P qXN.3.J e /.@X@X1XgXBXMXMXMXMXBXyX0XqXqXqXx._.@XqXqXqXqX@XpXBXMXMXMXMXMXvX4X8XOXqXi.Y a.d.U X p %               ",
"              1 <X#Xs.T K l.@X@X@X_.3XiXsXyXtX,X0XqXqXqX+Xz._.wXqXqXqXqXqXoX2XsXlXlXhXiX<XW.z.x.0Xg.i.:.B.J s 4 +               ",
"              . L fXd.;.i.h.0X@X@X@X^.(.oXOX+X@X@X@X@X@X@XOX`.@XqXqXqXqXqXqX@XOX/.v.g.4.x.z.j.'.0Xv.$.:./.e e.A.d               ",
"              + @ W rXN.a.).,X#XqXoXl.3Xn./.6X(._.oXOXOX+X+XOXOX+XOXOXoXOX_._./.,Xb.v.g.oXqXOX8X2Xj.;.~.R s I.U.A.4             ",
"              2 u.7 K iXn.b.h.uX@XoXtXMXcXbXxX4XyXdXaXiXrXtX=XtXtXrXyXsXgXhXlXhXvXnXvX*X+XqX@X5X/.^.v.&X4 p.U.P.U.F +           ",
"            X $.U.A.c u &XpX=X<XqX+X=XjX:XjXNXbXmXMXMXMXMXMXMXMXMXMXMXMXMXMXMXzXxXjX:X*X@X@XeX=XuX=XE e D K.P.U.L.u.o           ",
"            4 H.P.P.K.+.5 n E W 0XuX/.xXkXzXbX:XzXjXjXlXxXkXkXkXjXkXlXjXbXMXmX:XjXbX>X'.@XuXh.E E y 8 +.=.D.U.K.p.u.O           ",
"          + B U.P.P.P.e.#.V a $ I 5XuX=XbXNXMXmXmXNXmXvXvXvXBXvXvXBXmXNXNXMXMXbXNXlX*XqXfXh.% : % x =.=.*.D.U.I.L.f.@           ",
"          . G U.S.G.K.r.*.=.+.d 2 H ;XpXtXaXlXvXNXMXMXMXMXMXMXMXMXMXMXMXMXNXvXkXiX3XfXtXR > a v x N =.=.*.D.U.P.U.p.@           ",
"            B U.S.A.D.=.=.=.+.s x 7 4 L E =X*X<X3XrXaXdXgXhXhXjXhXgXdXyXtX4X<X1X4X&XK 4 , f v v x B =.=.*.S.I.P.U.t.O           ",
"            M U.P.P.J.r.*.=.+.a v v x a 6 2 t J 1.i.b.^././.,X).).(.(.^.Y.g.Y L e 2 h f v v x N a +.=.-.&.J.p.U.U.M             ",
"            r F.P.P.U.y.*.=.-.x v v v v v f 6 X ; p N Z m g.z.z.l.l.P Z g p ; o 2 x x v v v v x x *.=.+.e.F.p.U.p.>             ",
"              $.P.P.P.S.=.=.r.N f x v x g = l T ' } ) ' D u.c.^.W.i.2.N ` ) { ] m = f x v v x f V =.=.=.K.A.L.U.u.              ",
"              b J.U.G.G.e.-.=.*.B x v 7 > 5.OXE.` ^ ' ' ` z Z 1.F G C N B S O.o.1X1.% a v v x s @.=.=.e.I.U.P.H.c               ",
"                M H.L.p.A.e.r.*.=.B d % a.qX`.k.;.8.8.8.R.N.9.4.G i.x.R.c.3.o.Z x.uX1.@ f x f +.=.@.#.D.U.U.U.t.O               ",
"                  c F.K.S.I.y.*.=.#.% 1.'.j.Q.Q.N.B.k.M.B.k.R.!.u.g.@X#X#X#X.Xk.x.$X{.M % x +.=.*.@.r.J.K.U.G.8                 ",
"                    c G.U.P.I.e.*.N r ].z.d.C.Q.Z.s.Z.C.s.!.{.XXi.2.|.$X$X{.{.{.d.d.[.N., x r.*.=.y.P.A.I.G.c                   ",
"                      M K.U.U.A.t.2 A N.z.x.6Xz.6Xv.4X*XE.[.{.$X~.p.!.$X{.{.~.N.d.a.d.}.$., #.e.D.U.U.U.G.c                     ",
"                        F J.U.I.p.4 a.B.d.c.W.R.W.Y.T.!.[.{.{.{.XXXX$X X(.x.Y.!. X{.E.E.Q.> @.L.P.P.P.p.c                       ",
"                          M p.P.A.4 *XZ.Z.C.[.[.{.$X$X XXX$X{.{.XX.XW.x.T.}.{. X X X[.C.!.y G J.A.G.F 5                         ",
"                            5 G 3.= -X0XZ.Z.C.[.[.$X XXX+X9X1X,Xx.R.E.[.[.{. X X{.C.Z.|.5Xt C u.F j                             ",
"                                = O L yX5X|. X7XeXuXfXpX2Xq.<.<.s.T.`..X8X9X9X9X7XeXpXyXR * M r                                 ",
"                                      9 H K 0.q.w.<.O.] ^ / ( ^ ) ' ] <.<.q.q.q.6.K t * . O                                     ",
"                                          - ] ~ ~ ~ ~ [  .{ ^ p ~ _ _ ( / Q ! ! z @ .                                           ",
"                                          H .. ._ Q {  .{ { [ ) ( _ [  .|  .[ _ Q p O                                           ",
"                                        O w...{ _ [  . . .|  .} { ( (  .|  . . .[ ! <                                           "
};
