/* XPM */
static char *_65_3656548_luffy_pixel_art_one_piece_hd_png_download_removebg_preview__1_1647205713[] = {
/* columns rows colors chars-per-pixel */
"64 64 227 2 ",
"   c None",
".  c #020106",
"X  c #18140A",
"o  c #0B0916",
"O  c #1A1816",
"+  c #0F1010",
"@  c #34150A",
"#  c #3F3F0C",
"$  c #29241D",
"%  c #32291B",
"&  c #383814",
"*  c #140A39",
"=  c #130D29",
"-  c #3A1123",
";  c #3C3428",
":  c #3D3C3A",
">  c #302A2B",
",  c #420C09",
"<  c #4F3117",
"1  c #753D0C",
"2  c #4D3725",
"3  c #633327",
"4  c #41410E",
"5  c #58580C",
"6  c #7A471C",
"7  c #6F6F0C",
"8  c #4A4337",
"9  c #564C3B",
"0  c #574424",
"q  c #645036",
"w  c #756E26",
"e  c #1A0467",
"r  c #160F73",
"t  c #14225A",
"y  c #344875",
"u  c #5C584B",
"i  c #6B5B44",
"p  c #715F46",
"a  c #766951",
"s  c #7A6D53",
"d  c #6A6C69",
"f  c #555B71",
"g  c #8E1615",
"h  c #830404",
"j  c #8D2C22",
"k  c #CD0502",
"l  c #D80401",
"z  c #D4121A",
"x  c #EC090F",
"c  c #FD0101",
"v  c #FA0C0C",
"b  c #F70705",
"n  c #FB1406",
"m  c #F71918",
"M  c #E21716",
"N  c #F6251C",
"B  c #F53E11",
"V  c #DA1724",
"C  c #F4382B",
"Z  c #EF322C",
"A  c #C42C12",
"S  c #934D0F",
"D  c #934E11",
"F  c #955114",
"G  c #96551A",
"H  c #98561B",
"J  c #9A591D",
"K  c #985417",
"L  c #A4521A",
"P  c #AA7914",
"I  c #965922",
"U  c #9A5C23",
"Y  c #995C26",
"T  c #9D612A",
"R  c #946335",
"E  c #A16226",
"W  c #A2662D",
"Q  c #A56A2F",
"!  c #A37225",
"~  c #A56A32",
"^  c #A96E34",
"/  c #A36A35",
"(  c #AD743B",
")  c #AA7236",
"_  c #B1783E",
"`  c #D35406",
"'  c #C84007",
"]  c #ED6D06",
"[  c #D94B33",
"{  c #F44634",
"}  c #F7523C",
"|  c #EB4B37",
" . c #D37F2B",
".. c #EF7224",
"X. c #830565",
"o. c #903E66",
"O. c #886B49",
"+. c #88765A",
"@. c #947651",
"#. c #B37C43",
"$. c #B47F49",
"%. c #AF7942",
"&. c #C07455",
"*. c #EB6F55",
"=. c #ED7561",
"-. c #9A9A0B",
";. c #968D14",
":. c #B28C14",
">. c #AD9B16",
",. c #A3A008",
"<. c #BAB523",
"1. c #9D8929",
"2. c #C9AF0B",
"3. c #E1A338",
"4. c #E88E0B",
"5. c #DED704",
"6. c #D2C707",
"7. c #E0DC04",
"8. c #EBCE02",
"9. c #E8E404",
"0. c #FDFD01",
"q. c #F4F302",
"w. c #F5ED05",
"e. c #D4CC2B",
"r. c #EEDA2E",
"t. c #B88346",
"y. c #B7824A",
"u. c #BA854C",
"i. c #B68146",
"p. c #BD8B53",
"a. c #B28453",
"s. c #B78D5E",
"d. c #998363",
"f. c #A38B69",
"g. c #AA926C",
"h. c #B2946A",
"j. c #AA9876",
"k. c #B29A72",
"l. c #BBA377",
"z. c #C18E55",
"x. c #C3945D",
"c. c #C5965C",
"v. c #D79E45",
"b. c #ED855A",
"n. c #C99B64",
"m. c #CA9F6A",
"M. c #C69862",
"N. c #CCA26B",
"B. c #D0A36C",
"V. c #D2A86E",
"C. c #C8A678",
"Z. c #D1A772",
"A. c #D4AA74",
"S. c #D4AE7A",
"D. c #D9AE77",
"F. c #D6B17D",
"G. c #DAB47C",
"H. c #D8BB7A",
"J. c #D9BF6A",
"K. c #E2A67B",
"L. c #CDB048",
"P. c #EBDE45",
"I. c #1D0385",
"U. c #171888",
"Y. c #210486",
"T. c #220A9D",
"R. c #2704B2",
"E. c #2908A4",
"W. c #1B28BA",
"Q. c #2E2FB8",
"!. c #553CB2",
"~. c #3A6BB5",
"^. c #695F8D",
"/. c #4C5AA8",
"(. c #4044B5",
"). c #7E75AF",
"_. c #1936C1",
"`. c #1C2FC2",
"'. c #1748CA",
"]. c #1158D2",
"[. c #0B69D7",
"{. c #0579DD",
"}. c #007EE1",
"|. c #3A6FCA",
" X c #5A86BA",
".X c #7689A8",
"XX c #2586D2",
"oX c #0381E0",
"OX c #5297C1",
"+X c #A49C99",
"@X c #8B80B5",
"#X c #A7B0A4",
"$X c #909FA0",
"%X c #C7AD81",
"&X c #DCBA85",
"*X c #DFBE8B",
"=X c #D8B684",
"-X c #DFBF90",
";X c #C5B398",
":X c #E0BE8C",
">X c #E7BA89",
",X c #E1BF93",
"<X c #CCBDA6",
"1X c #DEC08F",
"2X c #DFC091",
"3X c #E2C18E",
"4X c #E6C489",
"5X c #E1C393",
"6X c #E7C893",
"7X c #E9CA95",
"8X c #E1C59A",
"9X c #ECCE98",
"0X c #E8C894",
"qX c #F6CC98",
"wX c #EED19B",
"eX c #F1D59D",
"rX c #F5DA9F",
"tX c #F6DBA2",
"yX c #F8DEA4",
"uX c #F3DBAD",
"iX c #E6D0AF",
"pX c #FBE1A7",
"aX c #FEE6AA",
"sX c #FFE8AC",
"dX c #E0DBD1",
"fX c #E9E3D8",
"gX c #FBFBF8",
/* pixels */
"                                                                                                                                ",
"                                                                                                                                ",
"                                                                                                                                ",
"                                                                                                                                ",
"                                                                                                      t.t.t.i.i.i.(             ",
"                                                                                              ( ( ( _ 4XaXaXaXaXpX&X$.          ",
"                                                                                8X:X:X:X3X&X( D.pXyXrXaXaXaXaXsXsXG.u.          ",
"                                                                        8X*X5X5X5X3X3X3X5X:X=XwXaXaXsXaXaXaXaXaXaXrXi.G         ",
"                                                                  8X2X5X3X*X*X6XyXpXyXyXtXyXyXpXaXaXaXaXaXaXsXaXpX6XA.W         ",
"                                                              8X8X*X*X*X*X:X9XyXaXaXaXaXwX6X7X7XeXaXaXaXaXaXaXaXsXG.c.W         ",
"                                                                      5X&X:X6X9X9X9X9X9X3X*X*X7XyXpXyXaXsXaXaXaXsX7X_ J         ",
"                                                                        8X8X:X*X*X*X*X*X5X*X3X9XeXwX6XpXaXaXaXaXpXeXc.T         ",
"                                                                            8X8X3X*X=XM.x.x.x.x.x.n.&XeXaXaXaXaXaX&XA.W         ",
"                                                    P P P P                       8XS.T J U J U J ~ m.*XpXaXpXyXaXG.y.T         ",
"                                    G F H Y T U R ) 2.5.w.w.:.                                      T m.9XpX7X3XwXwX) F         ",
"                            U K G J G F T         :.5.9.0.0.7.:.                                      #.F.3X3X=X&X*X)           ",
"                      U H H K F G               ! 2.7.7.q.0.0.6.!                 8X2X6X8X              / A.=X^ ) D.%.          ",
"                  T U D D F                     J ' ` 5.0.0.0.7.!               2X0XtXtX6X6X              ) Q ^ x.(             ",
"              W Y D S D T                     Y A k k ` ] ] 8.w.>.          8X5X9XtXaXaXtX0X8X                T ( D H Y Y       ",
"              K D D D /                     1.2.4.] ] l b b 3.P.L.S.8X2X8X8X7XeXyXsXaXaXpX6X2X              Y D ^ u.u.u.( U     ",
"            U D S K T                       5 ,.,.6.r.[ | | D.1X4X6X9X9X9X9XtXaXaXsXaXaXpX9X5X            U ( _ Z.5X:X:XD.W     ",
"            D S H                           ; 2 2 1.J.,X6X6X6X6X6XyXaXaXaXaXaXaXaXaXaXaXaXpX5X#.Q ^ ^ ^ ^ u.*X*XD.&XS.*X1Xp.J   ",
"          H D F                             =X*X*X1X4XeXaXaXaXaXaXaXaXaXaXaXaXaXsXaXsXaXaXyX3Xy.M.Z.Z.Z.Z.Z.A.A.y.S.y.Z.F.F.~   ",
"          G D H                   5X5X2X5X2X2XtXpXaXpXpXaXaXaXaXaXaXaXaXaXaXsXaXaXaXaXaXyX6X3X#.H J J H J J J H T S.( H ^ A.^   ",
"          F S F           8X8X8X:X*X-X:X:XtXyXaXaXaXaXpXaXaXaXaXaXaXaXaXpXaXpXaXaXaXaXaXpXyX5X#.D F F D F F F D U G.N.K F p.^   ",
"          D S D                 C *.    ,X7X0X0X0X0X0X0X6X2X6X7XpXaXrX0X6X0X0XeXaXaXaXaXeXpX4XC.        N.N.N.m.#.F.&X_ S J J   ",
"          G S D                 m m m Z       8X:X3X>X*X1X1X1X1X9XwX6X:X*X*X&X4XyXaXeX7X9XpXF.m.8X8X8X6X3XeXtXwXN._ S.p.S S D   ",
"            H D U                 v c v N N     +.p d.g.9Xd.R @.i i +.    8X*X:X7XwX6X6X3XtXN.x.6XeXwXwXwXpXaXpX:X( ( ^ S D     ",
"              T G H                 c c c c M g @ . + O.tX  3 @ . +         8X8X*X*X6XeX9X9XM.S.tXaXaXaXaXaXaXaXeXx.S D F T     ",
"                  G G               m c c c c c h . O $.iX  S.< +               5X1X3XrXyXG.x.tXyXtXpXaXaXaXaXpXpXm.H H U       ",
"                    I Y               C N N m m l , % ;XfXuX0X9                     5X:X3Xs.S.6X9X:X9XaXaXpXtX9XtX6X            ",
"                        / E           eXtXqX>X=.b [ p <XgXiXd.O                       5X5X    6X5X*X:XtXpX6X5X2XwX6X            ",
"                        S.D.*X8X,X    :X3X7XpXqXC } j.+.dXf.2                                       2X5X5X6X7X:XwX6X            ",
"            8X8X8X2X8X8X:X:X-X  =.N m N *.1X>X} m m $.% : $                                           3X*X6XtX9X7X5X            ",
"        8X5X*X*X*X8X      | C m v c c c N { C v c c j                                                     6XtXtX6X              ",
"      :X*X*X*X5X8X        N c c c c c c c c c c n ..3                                                     2X6X7X8X              ",
"    8X*X*X:X5X                v c c c c c c c c n  .u                                                       5X2X                ",
"    3X*X*X5X                    v b c c c c c n B g                                                                             ",
"  8X*X*X:X*X*X8X                  v c c c c c B v.2                                                                             ",
"    2X*X*X*X*X*X:X8X                V z x c n n z -                                                                             ",
"      :X*X*X*X*X&X3X2X1X6X    $ t XX|.~.o.x ..b.X.e o o                                               E U U                     ",
"        6X*X-X*X1X3X1X*X*X2X5Xl.l.#X#X#X.X~././.E.E.Y.Y.*                                             c.Z.A.u.                  ",
"              2X1X1X2X8X*X*X*X3X3X$XOX X(.[.'.W.R.'.].].f < 6 J I I U I I I I I I I U I U I H H I I y.D.#.z.t.                  ",
"                              +.d XXoX}.'.W._.U.`.{.{.|.+X< 1 S S S D D S S D S S S J p.z.z.z.z.z.z.V.>Xz.z.u.E                 ",
"                              : y [.oXoX[.T.r r W.'.'.).g.3 1 D S S S D S S D S S S J z.B.0XqX0X7X7X7X7X9XZ.) W                 ",
"                              d @X'.oX{.W.e o U.R.R.!.+Xa.q 1 S S S S S S S D D S S S E z.>XA.B.B.B.B.B.B.z.E U                 ",
"                              u   Q.[.].T.*   * I.Y.^.d.p.< 6 G H D S D S D D D S D S _ D.V.E D D F F D K E u.~                 ",
"                              8 +X  '.W.e     o o o o p g.%       U F F D D D D D F F F E E D S F F D S F n.#.H                 ",
"                              +.<X    * =             p R                             T N.G.E H       F D J J                   ",
"                            u =Xd.d   >             @ @.q                             p.eXV.N.V.^       F D U                   ",
"                            j.1Xi > O               ; h.8                           ) G.aX7XrX3X~                               ",
"                          a 9Xd.                    s C.8                     C.Y Y z.rXaXaXpXc.U                               ",
"                          l.2Xu                     d.*Xd.                  5XZ.$.p.1XaXaXaXpXc.U                               ",
"                        s eXd.                    +.g.1X3X0X7X0X7X7X7X7X7X7X7X7X9XaXaXaXaXaXaXZ.E                               ",
"                      O d.k.;         5X5X-X:X*X5X-X*X-X6XtXtXyXaXaXaXaXaXaXaXaXaXaXaXaXaXsXyXp.H                               ",
"                      $ + O $               8X2X*XF.H.C.C.%X*XtXpXpXpXpXaXpXpXpXpXpXpXpXpXpXpXG.~                               ",
"                    9 %X; s j.                    w -.& $ & l.1X5X5X5X3X4X:X&X:X:X:X:X:X&X:X:Xp.                                ",
"                    +.1X9 l.g.                      & ;.;.-.<.w     -X:X&X#.W W W W W W W W W                                   ",
"                    1.r.e.e.0                         4 # # < &                                                                 ",
"                    5 7 7 5 X                                                                                                   ",
"                      . + .                                                                                                     ",
"                                                                                                                                ",
"                                                                                                                                ",
"                                                                                                                                "
};
